<svg id="Fill_Outline" height="512" viewBox="0 0 64 64" width="512" xmlns="http://www.w3.org/2000/svg"><g id="Color"><g><circle cx="11" cy="49" fill="#52b788" r="4"/><path d="m24.97 45.115c-.95-.224-1.854-.109-2.624.247-1.167.54-2.526.54-3.693 0-.77-.356-1.674-.472-2.624-.247-1.43.338-2.59 1.501-2.92 2.933-.604 2.623 1.372 4.952 3.891 4.952 1.518 0 2.822-.855 3.5-2.101.678 1.246 1.982 2.101 3.5 2.101 2.519 0 4.495-2.329 3.89-4.952-.33-1.432-1.49-2.595-2.92-2.933z" fill="#52b788"/><g><path d="m5.879 34.151-1.414 1.414c-2.004 2.004-1.951 5.286.158 7.222 1.157 1.063 2.974.96 4.085-.151.391-.391 1.024-.391 1.414 0 1.395 1.395 2.446 3.096 3.07 4.967l.465 1.397 5.657-5.657-1.397-.466c-1.872-.624-3.572-1.675-4.967-3.07-.391-.391-.391-1.024 0-1.414 1.111-1.111 1.214-2.927.151-4.085-1.937-2.109-5.218-2.161-7.222-.157z" fill="#f9dbaf"/><path d="m11.442 41.442-.324-.324c-.685-.685-1.699-.924-2.618-.618s-1.933.067-2.618-.618c-1.029-1.029-1.669-2.372-1.835-3.803-1.543 2.016-1.366 4.926.575 6.709 1.157 1.063 2.974.96 4.085-.151.391-.391 1.024-.391 1.414 0 1.395 1.395 2.446 3.096 3.07 4.967l.466 1.396 5.657-5.657-.254-.085c-2.667.862-5.612.19-7.618-1.816z" fill="#edb88e"/></g><g><path d="m45 25c0-2.761-2.239-5-5-5-.05 0-.096.013-.146.015.086-.326.146-.662.146-1.015 0-2.209-1.791-4-4-4s-4 1.791-4 4c0 1.339.664 2.517 1.674 3.243-1.554.549-2.674 2.015-2.674 3.757 0 1.102.446 2.1 1.168 2.824-.719.866-1.168 1.963-1.168 3.176 0 1.781.939 3.335 2.341 4.22-.212.555-.341 1.151-.341 1.78 0 2.761 2.239 5 5 5s5-2.239 5-5c0-1.781-.939-3.335-2.341-4.22.212-.555.341-1.151.341-1.78 0-.735-.167-1.427-.452-2.055 2.5-.276 4.452-2.371 4.452-4.945z" fill="#95d5b2"/><path d="m45 25c0-2.645-2.061-4.788-4.661-4.966-.172.56-.215 1.16-.132 1.757.153 1.09-.05 2.236-.663 3.253-.242.402-.533.754-.86 1.056-.902.834-1.479 1.917-1.812 3.1-.095.337-.236.668-.426.983-.44.73-1.075 1.265-1.799 1.582-1.141.5-1.919 1.574-2.212 2.784-.055.228-.138.451-.236.671.33.386.71.728 1.142 1-.212.555-.341 1.151-.341 1.78 0 2.761 2.239 5 5 5s5-2.239 5-5c0-1.781-.939-3.335-2.341-4.22.212-.555.341-1.151.341-1.78 0-.735-.167-1.427-.452-2.055 2.5-.276 4.452-2.371 4.452-4.945z" fill="#52b788"/></g><g><path d="m57.68 44.218c.799-.641 1.32-1.614 1.32-2.718 0-1.933-1.567-3.5-3.5-3.5-1.803 0-3.271 1.369-3.462 3.122-.336-.072-.68-.122-1.038-.122-2.761 0-5 2.239-5 5s2.239 5 5 5c1.138 0 2.176-.395 3.016-1.036.634.639 1.512 1.036 2.484 1.036 1.933 0 3.5-1.567 3.5-3.5 0-1.517-.971-2.796-2.32-3.282z" fill="#95d5b2"/><path d="m58.079 47.699c-.777-.346-1.657-.26-2.459.024-.507.178-1.051.277-1.62.277-1.675 0-3.148-.831-4.056-2.095 1.088-.209 2.051-.767 2.763-1.559 1.079-1.2 2.435-2.102 3.962-2.623.076-.026.152-.054.228-.084.721-.282 1.373-.677 1.935-1.156-.437-1.433-1.755-2.483-3.332-2.483-1.803 0-3.271 1.369-3.462 3.122-.336-.072-.68-.122-1.038-.122-2.761 0-5 2.239-5 5s2.239 5 5 5c1.138 0 2.176-.395 3.016-1.036.634.639 1.512 1.036 2.484 1.036 1.775 0 3.226-1.326 3.454-3.039-.672.084-1.314-.012-1.875-.262z" fill="#52b788"/></g><g><path d="m61 25c0-2.422-1.723-4.441-4.01-4.9.001-.034.01-.066.01-.1 0-2.761-2.239-5-5-5s-5 2.239-5 5c0 .446.077.869.186 1.281-2.427.769-4.186 3.038-4.186 5.719 0 .139.011.275.021.411-1.776.767-3.021 2.531-3.021 4.589 0 1.636.797 3.071 2.013 3.98-3.399 3.482-5.562 8.06-6.013 13.02h5c0-3.168 1.854-5.993 4.663-7.3.887.799 2.049 1.3 3.337 1.3 2.454 0 4.486-1.772 4.91-4.104.354.065.717.104 1.09.104 3.314 0 6-2.686 6-6 0-1.651-.668-3.146-1.747-4.231 1.061-.917 1.747-2.256 1.747-3.769z" fill="#bbefc1"/><path d="m61 25c0-2.127-1.329-3.941-3.201-4.663-.026.092-.041.189-.072.278-.479 1.372-.656 2.863-.131 4.218.101.261.185.531.249.809.694 2.995-1.085 5.878-3.948 6.998-.072.028-.144.055-.216.079-1.534.527-2.896 1.433-3.983 2.637-.912 1.009-2.229 1.644-3.698 1.644-.368 0-.726-.041-1.07-.118-1.504-.337-3.049-.096-4.28.648-2.608 3.243-4.263 7.213-4.65 11.47h5c0-3.168 1.854-5.993 4.663-7.3.887.799 2.049 1.3 3.337 1.3 2.454 0 4.486-1.772 4.91-4.104.354.065.717.104 1.09.104 3.314 0 6-2.686 6-6 0-1.651-.668-3.146-1.747-4.231 1.061-.917 1.747-2.256 1.747-3.769z" fill="#95d5b2"/></g><g><circle cx="31" cy="43" fill="#ff7373" r="7"/><path d="m33 45c-3.832 0-6.941-3.081-6.995-6.9-1.239 1.263-2.005 2.991-2.005 4.9 0 3.866 3.134 7 7 7s7-3.134 7-7c0-.034-.005-.066-.005-.1-1.27 1.295-3.038 2.1-4.995 2.1z" fill="#ef5350"/></g><g><path d="m48.056 57h-32.112c-5.481 0-10.493-3.097-12.944-8h58c-2.451 4.903-7.463 8-12.944 8z" fill="#ade8f4"/><path d="m50.483 54.379h-32.111c-4.426 0-8.543-2.021-11.256-5.379h-4.116c2.451 4.903 7.463 8 12.944 8h32.111c4.699 0 9.046-2.28 11.738-6.018-2.562 2.153-5.84 3.397-9.31 3.397z" fill="#48cae4"/><path d="m44 61h-24c-1.105 0-2-.895-2-2v-2h28v2c0 1.105-.895 2-2 2z" fill="#48cae4"/><path d="m46 57v2h-24c-1.105 0-2 .895-2 2-1.105 0-2-.895-2-2v-2z" fill="#00b4d8"/></g><g><path d="m22.569 31.301c-1.196.69-2.725.281-3.415-.915s-.281-2.725.915-3.415l-1.75-3.031c-2.87 1.657-3.853 5.326-2.196 8.196s5.326 3.853 8.196 2.196z" fill="#e9f1f2"/><path d="m17.123 30.136c-.846-1.465-1-3.137-.57-4.645-1.427 1.867-1.678 4.483-.43 6.645 1.657 2.87 5.326 3.853 8.196 2.196l-.766-1.327c-2.471.52-5.1-.564-6.43-2.869z" fill="#d0d8da"/></g><g><ellipse cx="22" cy="10.5" fill="#edb88e" rx="2" ry="2.5"/><path d="m23 12c-1.105 0-2-1.119-2-2.5 0-.495.118-.952.317-1.34-.767.35-1.317 1.261-1.317 2.34 0 1.381.895 2.5 2 2.5.709 0 1.328-.464 1.683-1.16-.214.098-.442.16-.683.16z" fill="#da9367"/></g><g><ellipse cx="8" cy="26.5" fill="#edb88e" rx="2" ry="2.5" transform="matrix(.707 -.707 .707 .707 -16.395 13.419)"/><path d="m7.586 26.914c-.755-.755-1.015-1.776-.734-2.563-.23.082-.443.204-.619.381-.781.781-.623 2.206.354 3.182.976.976 2.401 1.135 3.182.354.177-.177.299-.389.381-.619-.788.28-1.809.021-2.564-.735z" fill="#da9367"/></g><g><g><path d="m9.873 19.608 3.75 1.392c1.153-3.106-.43-6.56-3.536-7.713l-3.75-1.392c-1.153 3.106.43 6.559 3.536 7.713z" fill="#bbefc1"/></g><path d="m10.873 17.608c-2.37-.88-3.848-3.098-3.907-5.479l-.63-.234c-1.153 3.107.43 6.56 3.536 7.713l3.751 1.392c.274-.737.389-1.493.37-2.234z" fill="#95d5b2"/></g><g><path d="m20 19 4 5 4-5c-2.209-2.209-5.791-2.209-8 0z" fill="#ff7373"/><path d="m22.156 19.446-1.035-1.294c-.397.236-.779.506-1.121.848l4 5 3.093-3.866c-1.524 1.078-3.7.858-4.937-.688z" fill="#ef5350"/></g><g><path d="m38.584 10.354c.357-1.334 1.728-2.125 3.062-1.768s2.125 1.728 1.768 3.062l3.381.906c.858-3.201-1.042-6.491-4.243-7.348s-6.491 1.042-7.348 4.243z" fill="#e9f1f2"/><path d="m44.903 12.048c.541-3.034-1.319-6.029-4.351-6.842-.182-.049-.364-.086-.546-.117-2.244.379-4.175 2.018-4.802 4.36l3.381.906c.357-1.334 1.728-2.125 3.062-1.768s2.125 1.728 1.768 3.062z" fill="#d0d8da"/></g></g></g><g id="Outline_copy"><g fill="#323232"><path d="m10.121 35.564c-.391-.39-1.024-.39-1.415 0-.542.542-.833 1.243-.872 1.954-.739.04-1.428.347-1.956.875-.39.391-.39 1.024 0 1.415.391.39 1.024.39 1.415 0 .377-.378 1.036-.378 1.413 0 .195.195.452.293.708.293s.512-.098.707-.292c.195-.195.293-.451.293-.707s-.098-.512-.292-.708c-.39-.39-.39-1.024 0-1.415s.39-1.024-.001-1.415z"/><path d="m62 33c0-1.529-.488-2.985-1.391-4.189.893-1.071 1.391-2.416 1.391-3.811 0-2.847-2.024-5.32-4.813-5.881-.54-.107-1.069.242-1.178.783-.108.542.242 1.069.783 1.178 1.859.374 3.208 2.022 3.208 3.92 0 1.145-.511 2.243-1.4 3.012-.21.182-.336.442-.346.719-.011.277.095.546.29.743.938.944 1.456 2.196 1.456 3.526 0 2.757-2.243 5-5 5-.293 0-.59-.028-.909-.087-.259-.048-.531.01-.749.161-.219.151-.368.383-.415.644-.346 1.902-1.997 3.282-3.927 3.282-.975 0-1.922-.37-2.667-1.043-.299-.27-.729-.333-1.092-.164-2.877 1.34-4.818 4.102-5.168 7.207h-2.843c1.128-1.394 1.77-3.135 1.77-5 0-.31-.022-.615-.057-.917.964-1.997 2.234-3.816 3.785-5.404.201-.206.304-.489.281-.776s-.168-.551-.398-.723c-1.024-.766-1.611-1.925-1.611-3.18 0-1.596.949-3.037 2.417-3.671.39-.168.625-.646.596-1.069-.006-.086-.013-.172-.013-.26 0-2.189 1.402-4.104 3.488-4.766.51-.161.802-.694.665-1.21-.104-.393-.153-.718-.153-1.024 0-2.206 1.794-4 4-4 1.178 0 2.291.517 3.055 1.417.357.42.988.473 1.409.116.422-.357.474-.988.116-1.41-1.144-1.349-2.813-2.123-4.58-2.123-3.309 0-6 2.691-6 6 0 .215.014.431.042.654-.45.209-.86.474-1.248.766-.921-1.23-2.28-2.075-3.795-2.335.001-.028.001-.057.001-.085 0-2.757-2.243-5-5-5s-5 2.243-5 5c0 1.093.366 2.148 1.016 3.006-1.245.927-2.016 2.398-2.016 3.994 0 1.041.316 2.034.904 2.869-.594.947-.904 2.015-.904 3.131 0 .208.011.415.032.618.053.515.487.897.994.897.034 0 .069-.001.104-.005.549-.057.949-.548.892-1.098-.015-.136-.022-.273-.022-.412 0-.921.324-1.798.937-2.537.329-.397.303-.979-.062-1.345-.564-.566-.875-1.319-.875-2.118 0-1.259.807-2.39 2.007-2.814.352-.124.604-.433.657-.802s-.104-.736-.406-.953c-.8-.575-1.258-1.461-1.258-2.431 0-1.654 1.346-3 3-3s3 1.346 3 3c0 .225-.036.466-.113.759-.081.305-.013.63.184.877s.509.396.812.377c.062-.001.122-.007.117-.013 1.369 0 2.639.717 3.367 1.859-.825 1.122-1.324 2.481-1.364 3.946-1.845 1.063-3.003 3.034-3.003 5.195 0 1.521.568 2.945 1.589 4.041-.462.519-.889 1.064-1.299 1.621l-1.281-2.305c-1.214-2.185-1.406-4.781-.528-7.122 1.022-2.728.862-5.786-.441-8.393l-.146-.29c-.246-.494-.849-.691-1.342-.446-.494.248-.693.849-.445 1.342l.145.289c1.055 2.11 1.185 4.587.356 6.795-1.084 2.891-.847 6.097.653 8.796l.836 1.504c-1.469-1.73-3.656-2.832-6.097-2.832-4.411 0-8 3.589-8 8 0 .369.028.733.076 1.092-.397.074-.784.194-1.149.363-.775.359-1.643.392-2.448.137l.541-.541c.245-.245.346-.6.266-.937s-.328-.609-.657-.719l-1.397-.466c-1.715-.571-3.297-1.549-4.576-2.828 1.52-1.521 1.6-3.922.181-5.468-1.119-1.219-2.644-1.909-4.294-1.944-1.672-.043-3.204.588-4.371 1.756l-1.415 1.414c-.391.39-.391 1.023 0 1.414s1.023.391 1.414 0l1.415-1.414c.779-.778 1.806-1.203 2.915-1.17 1.1.023 2.117.484 2.864 1.297.681.742.626 1.954-.121 2.701-.378.377-.586.88-.586 1.415 0 .534.208 1.036.586 1.414 1.463 1.463 3.266 2.59 5.22 3.265l-3.375 3.376c-.675-1.956-1.796-3.762-3.259-5.226-.755-.756-2.073-.757-2.829 0-.749.747-1.96.802-2.701.122-.915-.84-1.384-2.031-1.286-3.267.043-.551-.368-1.032-.918-1.076-.55-.038-1.033.368-1.076.918-.146 1.854.556 3.639 1.928 4.899 1.545 1.419 3.947 1.34 5.468-.181.237.237.451.493.667.75-1.995.37-3.578 1.922-3.982 3.904h-3.101c-.347 0-.668.18-.851.474-.182.295-.199.663-.044.973 2.639 5.276 7.941 8.553 13.839 8.553h1.056v1c0 1.654 1.346 3 3 3h24c1.654 0 3-1.346 3-3v-1h1.056c5.898 0 11.201-3.277 13.839-8.553.155-.31.139-.678-.044-.973-.183-.294-.504-.474-.851-.474h-.057c.019-.167.057-.332.057-.5 0-1.404-.666-2.704-1.743-3.541.48-.724.743-1.574.743-2.459 0-1.03-.354-1.998-.975-2.778 1.796-1.27 2.975-3.361 2.975-5.722zm-31 4c3.309 0 6 2.691 6 6 0 2.038-1.016 3.884-2.716 5h-6.568c-1.7-1.116-2.716-2.962-2.716-5 0-3.309 2.691-6 6-6zm-20 9c.126 0 .26.013.402.037.33.605.623 1.23.841 1.883l.026.08h-4.085c.414-1.161 1.514-2 2.816-2zm34 13c0 .551-.448 1-1 1h-24c-.551 0-1-.449-1-1v-1h26zm3.056-3h-32.112c-4.572 0-8.734-2.262-11.213-6h14.269c.552 0 1-.448 1-1s-.448-1-1-1h-2.929l1.846-1.846c.112.034.22.072.316.116.72.333 1.493.5 2.267.5.773 0 1.546-.167 2.267-.5.264-.122.543-.19.829-.228.29.708.691 1.362 1.174 1.958h-1.77c-.552 0-1 .448-1 1s.448 1 1 1h36.269c-2.479 3.738-6.641 6-11.213 6zm9.944-14.5c0 .749-.345 1.456-.946 1.938-.282.227-.42.588-.36.945.06.356.308.653.647.776.992.358 1.659 1.298 1.659 2.341 0 .167-.023.334-.059.5h-5.904c.178-1.686 1.087-3.215 2.517-4.168.46-.306.584-.927.277-1.387s-.927-.585-1.387-.277c-1.252.834-2.21 1.995-2.795 3.328-.472-.313-1.04-.496-1.649-.496-.553 0-1 .448-1 1s.447 1 1 1c.552 0 1 .449 1 1h-8.924c.309-2.13 1.588-4.031 3.47-5.114 1.014.722 2.218 1.114 3.454 1.114 2.576 0 4.822-1.639 5.652-4.009.876.047 1.716-.078 2.5-.331.53.47.848 1.124.848 1.84z"/><path d="m55 30c-.553 0-1 .448-1 1v1.29c-1.577.303-3.107.84-4.525 1.594.701-1.304 1.084-2.739 1.145-4.199l.63-.124c2.173-.428 3.75-2.346 3.75-4.561 0-.552-.447-1-1-1s-1 .448-1 1c0 1.262-.898 2.354-2.137 2.597l-.365.072c-.115-.689-.303-1.373-.57-2.04-.205-.513-.791-.762-1.3-.557-.513.205-.763.787-.558 1.3 1.094 2.733.568 5.807-1.37 8.022l-3.454 3.947c-.337.385-.328.963.02 1.339.197.211.464.32.734.32.21 0 .421-.065.6-.2l4-3c2.408-1.805 5.392-2.8 8.4-2.8.553 0 1-.448 1-1s-.447-1-1-1c-.334 0-.667.011-1 .033v-1.033c0-.552-.447-1-1-1z"/><circle cx="31" cy="40" r="1"/><circle cx="31" cy="46" r="1"/><circle cx="34" cy="43" r="1"/><circle cx="28" cy="43" r="1"/><path d="m15.256 32.636c.935 1.619 2.444 2.777 4.25 3.261.603.162 1.215.242 1.823.242 1.213 0 2.41-.318 3.489-.941.479-.276.642-.888.366-1.366l-1.75-3.031c-.277-.478-.889-.643-1.366-.366-.717.415-1.636.167-2.049-.549-.201-.347-.254-.751-.15-1.138s.352-.71.698-.911c.479-.276.643-.888.367-1.366s-.889-.644-1.366-.366c-.81.467-1.389 1.222-1.631 2.125s-.118 1.847.35 2.656c.791 1.37 2.375 2.005 3.842 1.655l.773 1.339c-.923.31-1.917.343-2.879.086-1.29-.346-2.368-1.173-3.036-2.33-1.378-2.388-.558-5.452 1.83-6.83.479-.276.642-.888.366-1.366-.276-.479-.887-.644-1.366-.366-3.34 1.93-4.49 6.219-2.561 9.562z"/><path d="m34.944 10.415 3.381.906c.534.145 1.082-.173 1.225-.707.215-.799 1.039-1.275 1.837-1.061.388.104.711.352.911.699s.253.751.149 1.138c-.068.256-.033.529.1.759s.352.397.607.466l3.381.906c.085.023.172.034.259.034.174 0 .347-.045.5-.134.229-.133.397-.351.466-.607.999-3.729-1.222-7.574-4.949-8.573-1.808-.485-3.693-.236-5.312.699-1.62.935-2.778 2.445-3.262 4.251-.142.533.174 1.081.707 1.224zm3.554-3.744c1.157-.668 2.506-.845 3.795-.5 2.332.625 3.838 2.81 3.697 5.132l-1.491-.4c-.016-.575-.174-1.14-.47-1.652-.467-.81-1.222-1.389-2.125-1.63-1.523-.41-3.097.263-3.887 1.546l-1.494-.4c.434-.871 1.113-1.598 1.975-2.096z"/><path d="m9.525 20.545 3.75 1.392c.113.042.23.063.348.063.143 0 .285-.03.417-.091.241-.111.428-.312.521-.561.651-1.753.58-3.654-.199-5.354s-2.174-2.994-3.927-3.645l-3.75-1.392c-.516-.19-1.093.072-1.286.589-1.343 3.619.508 7.656 4.126 8.999zm-2.504-7.33 2.718 1.009c1.903.706 3.107 2.458 3.234 4.363l-2.212-2.765c-.346-.431-.975-.501-1.406-.156s-.501.974-.156 1.406l1.387 1.734-.365-.135c-2.263-.841-3.558-3.158-3.2-5.456z"/><path d="m19.293 18.293c-.36.36-.392.934-.074 1.332l4 5c.19.237.477.375.781.375s.591-.138.781-.375l4-5c.318-.397.287-.971-.074-1.332-2.596-2.596-6.818-2.596-9.414 0zm4.707 4.106-2.607-3.259c1.568-1.061 3.646-1.061 5.214 0z"/><path d="m22 14c1.654 0 3-1.57 3-3.5s-1.346-3.5-3-3.5-3 1.57-3 3.5 1.346 3.5 3 3.5zm0-5c.533 0 1 .701 1 1.5s-.467 1.5-1 1.5-1-.701-1-1.5.467-1.5 1-1.5z"/><path d="m5.878 28.621c.632.632 1.435 1.031 2.261 1.123.119.014.237.02.354.02.764 0 1.472-.279 1.981-.789.588-.588.869-1.439.769-2.335-.091-.826-.49-1.628-1.122-2.261s0 0 0 0c-.632-.632-1.435-1.031-2.261-1.122-.896-.102-1.747.181-2.335.769s-.869 1.439-.769 2.335c.092.826.491 1.628 1.122 2.26zm1.062-3.182c.165-.166.391-.203.564-.203.051 0 .097.003.136.007.371.042.76.242 1.067.549.308.307.508.696.549 1.067.019.169.018.486-.196.7s-.532.211-.7.196c-.371-.042-.76-.242-1.067-.55-.308-.307-.508-.696-.549-1.067-.019-.168-.018-.485.196-.699z"/></g></g></svg>