<svg id="Fill_Outline" height="512" viewBox="0 0 64 64" width="512" xmlns="http://www.w3.org/2000/svg"><g id="Color"><g><g><path d="m43 56h-32c-1.105 0-2-.895-2-2v-43c0-1.105.895-2 2-2h32c1.105 0 2 .895 2 2v43c0 1.105-.895 2-2 2z" fill="#ade8f4"/><path d="m42 35c-13.009 0-23.593-10.352-23.981-23.267.291.165.622.267.981.267h15c1.105 0 2-.895 2-2v-1h-25c-1.105 0-2 .895-2 2v43c0 1.105.895 2 2 2h32c1.105 0 2-.895 2-2v-19z" fill="#48cae4"/><path d="m32 7v-2c0-1.105-.895-2-2-2h-6c-1.105 0-2 .895-2 2v2h-2c-1.105 0-2 .895-2 2 0 1.105.895 2 2 2h14c1.105 0 2-.895 2-2 0-1.105-.895-2-2-2z" fill="#e9f1f2"/><path d="m18.512 7.676c-.315.353-.512.814-.512 1.324 0 1.105.895 2 2 2h14c1.105 0 2-.895 2-2h-15c-1.036 0-1.949-.525-2.488-1.324z" fill="#d0d8da"/><path d="m25 5c-1.014 0-1.844-.758-1.973-1.737-.61.343-1.027.988-1.027 1.737v2h10v-2z" fill="#d0d8da"/><g><g><path d="m28.936 25.25-2.026 3.449c-3.81-2.238-5.084-7.14-2.847-10.95l2.026-3.449c3.81 2.238 5.085 7.14 2.847 10.95z" fill="#52b788"/><path d="m24.461 20.674c-.478-.28-.875-.645-1.185-1.063-.978 3.423.422 7.202 3.635 9.089l2.026-3.449c1.079-1.837 1.334-3.925.89-5.849-1.161 1.778-3.516 2.358-5.366 1.272z" fill="#40916c"/><path d="m30 30h-4c0-4.418 3.582-8 8-8h4c0 4.418-3.582 8-8 8z" fill="#95d5b2"/><path d="m31 26c-1.177 0-2.225-.518-2.957-1.327-1.266 1.415-2.043 3.278-2.043 5.327h4c4.418 0 8-3.582 8-8h-.079c-1.384 2.389-3.962 4-6.921 4z" fill="#52b788"/><path d="m24 30h4c0-5.523-4.477-10-10-10h-4c0 5.523 4.477 10 10 10z" fill="#95d5b2"/><path d="m24 30h3.345c-3.295-2.545-5.91-5.925-7.526-9.827-.59-.108-1.197-.173-1.819-.173h-4c0 5.523 4.477 10 10 10z" fill="#52b788"/><path d="m27.99 29.552c-.102-2.314-2.199-3.868-4.498-3.583-.161.021-.325.031-.492.031-3.951 0-7.357-2.297-8.981-5.624.2 5.347 4.585 9.624 9.981 9.624h4c0-.15-.003-.299-.01-.448z" fill="#52b788"/><path d="m24 30h3.345c-1.517-1.172-2.889-2.52-4.086-4.016-.087.006-.171.016-.259.016-3.951 0-7.357-2.297-8.981-5.624.2 5.347 4.585 9.624 9.981 9.624z" fill="#40916c"/></g></g></g><g><path d="m34.26 39.598-1.936-.502c-2.673-.693-4.278-3.422-3.584-6.095l1.936.502c2.673.693 4.278 3.422 3.584 6.095z" fill="#95d5b2"/><path d="m32.324 37.095c-1.906-.495-3.251-2.03-3.624-3.837-.529 2.588 1.037 5.166 3.624 5.837l1.936.502c.261-1.005.196-2.017-.127-2.926-.481.415-1.148.596-1.809.424z" fill="#52b788"/><path d="m39 39c-1.459 0-2.822.397-4 1.079-1.178-.682-2.541-1.079-4-1.079-4.418 0-8 3.582-8 8s4.915 14 9.333 14c1.003 0 1.888-.334 2.667-.884.778.55 1.664.884 2.667.884 4.418 0 9.333-9.582 9.333-14s-3.582-8-8-8z" fill="#ff7373"/><path d="m34 42c-2.28 0-4.333-.959-5.79-2.49-3.041 1.134-5.21 4.055-5.21 7.49 0 4.418 4.915 14 9.333 14 1.003 0 1.888-.334 2.667-.884.778.55 1.664.884 2.667.884 4.418 0 9.333-9.582 9.333-14 0-1.893-.661-3.63-1.76-5z" fill="#ef5350"/><path d="m47 44h-44v4h43.92c-.14 1.17-.54 2.56-1.12 4h1.2c2.21 0 4-1.79 4-4 0-2.209-1.791-4-4-4z" fill="#fcf2ad"/><path d="m50.518 49.795c-.917-2.292-3.137-3.795-5.606-3.795h-33.912c-1.105 0-2-.895-2-2h-6v4h43.92c-.14 1.17-.54 2.56-1.12 4h1.2c1.544 0 2.868-.883 3.534-2.164z" fill="#f9dbaf"/><path d="m24.2 52c-.58-1.44-.98-2.83-1.12-4h-.08c-2.21 0-4 1.79-4 4 0 2.209 1.791 4 4 4h38v-4z" fill="#fcf2ad"/><path d="m25 54c-3.203 0-4.563-4.078-2-6-2.21 0-4 1.79-4 4 0 2.209 1.791 4 4 4h38v-2z" fill="#f9dbaf"/></g></g></g><g id="Outline_copy"><g fill="#323232"><path d="m9 29c.552 0 1-.447 1-1v-17c0-.552.449-1 1-1h6.184c.414 1.161 1.514 2 2.816 2h14c1.302 0 2.402-.839 2.816-2h6.184c.551 0 1 .448 1 1v26.269c0 .553.448 1 1 1s1-.447 1-1v-26.269c0-1.654-1.346-3-3-3h-6.184c-.414-1.161-1.514-2-2.816-2h-1v-1c0-1.654-1.346-3-3-3h-6c-1.654 0-3 1.346-3 3v1h-1c-1.302 0-2.402.839-2.816 2h-6.184c-1.654 0-3 1.346-3 3v17c0 .553.448 1 1 1zm11-21h2c.552 0 1-.447 1-1v-2c0-.552.449-1 1-1h6c.551 0 1 .448 1 1v2c0 .553.448 1 1 1h2c.551 0 1 .448 1 1s-.449 1-1 1h-14c-.551 0-1-.448-1-1s.449-1 1-1z"/><path d="m30 31c4.962 0 9-4.037 9-9 0-.553-.448-1-1-1s-1 .447-1 1c0 3.859-3.14 7-7 7h-.056l3.571-2.143c.474-.284.627-.898.343-1.372s-.898-.628-1.372-.343l-3.802 2.281c-.114-.473-.258-.934-.431-1.382 1.31-1.904 3.429-3.041 5.747-3.041.552 0 1-.447 1-1s-.448-1-1-1c-1.037 0-2.038.19-2.981.521.112-3.246-1.545-6.393-4.423-8.083-.477-.281-1.089-.12-1.369.355l-2.026 3.45c-.478.814-.805 1.684-1.006 2.592-1.293-.535-2.709-.835-4.195-.835h-4c-.552 0-1 .447-1 1 0 6.065 4.935 11 11 11zm-5.074-12.743 1.483-2.524c2.032 1.629 2.997 4.302 2.461 6.885-.283.198-.552.414-.812.645l-.051-2.645c-.011-.552-.473-.969-1.02-.98-.552.011-.991.467-.98 1.02l.036 1.863c-.597-.641-1.263-1.215-1.997-1.7.125-.908.413-1.77.88-2.564zm-9.871 2.743h2.945c3.64 0 6.775 2.177 8.191 5.294-1.893-1.674-4.227-2.814-6.78-3.239l-.249-.041c-.544-.098-1.06.279-1.149.823-.09.545.279 1.06.824 1.149l.247.041c2.743.458 5.189 1.882 6.955 3.973h-2.039c-4.625 0-8.446-3.506-8.945-8z"/><path d="m23 33h-10c-.552 0-1 .447-1 1s.448 1 1 1h10c.552 0 1-.447 1-1s-.448-1-1-1z"/><path d="m23 37h-10c-.552 0-1 .447-1 1s.448 1 1 1h10c.552 0 1-.447 1-1s-.448-1-1-1z"/><path d="m61 55h-3c0-.553-.448-1-1-1s-1 .447-1 1h-3c0-.553-.448-1-1-1s-1 .447-1 1h-3c0-.553-.448-1-1-1s-1 .447-1 1h-3c0-.553-.448-1-1-1s-1 .447-1 1h-3c0-.553-.448-1-1-1s-1 .447-1 1h-3c0-.553-.448-1-1-1s-1 .447-1 1h-3c0-.553-.448-1-1-1s-1 .447-1 1h-3c0-.553-.448-1-1-1-.323 0-.597.163-.78.401-.736-.547-1.22-1.415-1.22-2.401 0-1.379.936-2.544 2.251-2.893.123.591.31 1.232.529 1.893h-.78c-.552 0-1 .447-1 1s.448 1 1 1h5c.552 0 1-.447 1-1s-.448-1-1-1h-2.114c-.262-.71-.46-1.379-.605-2h21.444c-.144.616-.366 1.296-.625 2h-14.1c-.552 0-1 .447-1 1s.448 1 1 1h30c.552 0 1-.447 1-1s-.448-1-1-1h-10.026c.635-.838 1.026-1.87 1.026-3 0-2.746-2.226-4.979-4.967-4.997-1.516-3.051-4.585-5.003-8.033-5.003-1.046 0-2.083.186-3.063.543-.325-1.73.611-3.485 2.263-4.146l1.172-.469c.513-.205.762-.787.557-1.3-.206-.514-.785-.762-1.3-.558l-1.171.469c-1.304.522-2.319 1.489-2.935 2.665-.816-1.328-2.083-2.278-3.596-2.67l-1.936-.502c-.533-.143-1.08.183-1.219.717-.403 1.551-.177 3.166.636 4.548.199.339.438.642.694.928-2.651.569-4.903 2.302-6.133 4.776h-12.969v-11.001c0-.553-.448-1-1-1s-1 .447-1 1v11h-5c-.552 0-1 .447-1 1s.448 1 1 1h30c.552 0 1-.447 1-1s-.448-1-1-1h-7.72c1.29-1.852 3.393-3 5.72-3 1.223 0 2.433.326 3.499.944.311.18.692.18 1.003 0 1.065-.618 2.275-.944 3.498-.944 2.327 0 4.43 1.148 5.72 3h-7.72c-.552 0-1 .447-1 1s.448 1 1 1h10c1.654 0 3 1.346 3 3 0 1.575-1.22 2.87-2.765 2.991.233-.707.393-1.364.518-1.991h.247c.552 0 1-.447 1-1s-.448-1-1-1c0-.553-.448-1-1-1s-1 .447-1 1h-3c0-.553-.448-1-1-1s-1 .447-1 1h-3c0-.553-.448-1-1-1s-1 .447-1 1h-3c0-.553-.448-1-1-1s-1 .447-1 1h-3c0-.553-.448-1-1-1s-1 .447-1 1h-3c0-.553-.448-1-1-1s-1 .447-1 1h-3c0-.553-.448-1-1-1s-1 .447-1 1h-3c0-.553-.448-1-1-1s-1 .447-1 1h-3c0-.553-.448-1-1-1s-1 .447-1 1h-3c-.552 0-1 .447-1 1s.448 1 1 1h5v5c0 1.654 1.346 3 3 3h14.687c1.365 2.057 3.814 5 6.646 5 .933 0 1.827-.236 2.667-.703.839.467 1.734.703 2.667.703 2.833 0 5.281-2.943 6.646-5h16.687c.552 0 1-.447 1-1s-.448-1-1-1zm-30.575-20.53c1.801.468 2.998 2.097 2.996 3.877l-.07-.018c-.146-.04-.291-.081-.439-.114l-.337-.087c-1.801-.468-2.998-2.097-2.996-3.877zm-20.425 19.53v-5h9.026c-.635.838-1.026 1.87-1.026 3s.391 2.162 1.026 3h-8.026c-.551 0-1-.448-1-1zm27.667 6c-.739 0-1.422-.229-2.089-.7-.347-.244-.808-.244-1.154 0-.667.471-1.351.7-2.089.7-1.209 0-2.711-1.104-4.18-3h13.693c-1.47 1.896-2.973 3-4.181 3z"/></g></g></svg>