<svg height="512" viewBox="0 0 64 64" width="512" xmlns="http://www.w3.org/2000/svg"><g id="Twotone"><g id="Stroke_copy_3" data-name="Stroke copy 3"><path d="m34.607 24.215a33.972 33.972 0 0 1 -2.9-7.973 13 13 0 0 0 -25.443.138 45.121 45.121 0 0 1 -1.843 6.83l-.6 1.595a4.86 4.86 0 0 0 .383 4.206l.296.489a4.849 4.849 0 0 1 0 4.995 4.86 4.86 0 0 0 0 5.005l.085.141a4.86 4.86 0 0 0 4.167 2.359h21.325a4 4 0 0 0 3.123-1.5l.713-.89a4.063 4.063 0 0 0 .117-5.07 4 4 0 0 1 -.03-5.04l.4-.5a4 4 0 0 0 .454-4.289z" fill="#79bd9a"/><path d="m13 38h12a10 10 0 0 1 10 10v13a0 0 0 0 1 0 0h-32a0 0 0 0 1 0 0v-13a10 10 0 0 1 10-10z" fill="#79bd9a"/><path d="m29 53h6v8h-6z" fill="#f9dbaf"/><path d="m3 53h6v8h-6z" fill="#fff"/><path d="m35 53v2a4 4 0 0 0 -4 4v2h-2v-8z" fill="#edb88e"/><path d="m3 53v2a4 4 0 0 1 4 4v2h2v-8z" fill="#cff09e"/><path d="m19 38v6l-1.14.8a5 5 0 0 1 -7.84-4.57l.17-1.82a9.645 9.645 0 0 1 2.81-.41z" fill="#a8dba8"/><path d="m20.14 44.8-1.14-.8v-6h6a9.645 9.645 0 0 1 2.81.41l.17 1.82a5 5 0 0 1 -7.84 4.57z" fill="#a8dba8"/><path d="m24 41-5 3-5-3v-8h10z" fill="#fff"/><path d="m17 39a9.706 9.706 0 0 1 -1.21-.08 9.932 9.932 0 0 0 6.58 3.06l-3.37 2.02-5-3v-8h10v3.14a9.947 9.947 0 0 1 -7 2.86z" fill="#cff09e"/><path d="m28 19h2a3 3 0 0 1 3 3 5 5 0 0 1 -5 5 0 0 0 0 1 0 0v-8a0 0 0 0 1 0 0z" fill="#cff09e"/><path d="m5 19a5 5 0 0 1 5 5 3 3 0 0 1 -3 3h-2a0 0 0 0 1 0 0v-8a0 0 0 0 1 0 0z" fill="#fff" transform="matrix(-1 0 0 -1 15 46)"/><path d="m5.73 24.6a5.145 5.145 0 0 0 .73.94 5.022 5.022 0 0 0 3.54 1.46v-8h-2v2a3.988 3.988 0 0 1 -2.27 3.6z" fill="#cff09e"/><path d="m19 37a10 10 0 0 1 -10-10v-9a6.874 6.874 0 0 0 5-5l.49.35a24.966 24.966 0 0 0 14.51 4.65v9a10 10 0 0 1 -10 10z" fill="#fff"/><path d="m12 18.36v5.64a10 10 0 0 0 10 10 9.807 9.807 0 0 0 5.41-1.61 9.992 9.992 0 0 1 -18.41-5.39v-9a6.893 6.893 0 0 0 5-5l.49.35a24.992 24.992 0 0 0 14.51 4.65v2a24.992 24.992 0 0 1 -14.51-4.65l-.49-.35a6.837 6.837 0 0 1 -2 3.36z" fill="#cff09e"/><path d="m39 38h12a10 10 0 0 1 10 10v13a0 0 0 0 1 0 0h-32a0 0 0 0 1 0 0v-13a10 10 0 0 1 10-10z" fill="#79bd9a"/><path d="m55 53h6v8h-6z" fill="#fff"/><path d="m29 53h6v8h-6z" fill="#fff"/><g fill="#cff09e"><path d="m61 53v2a4 4 0 0 0 -4 4v2h-2v-8z"/><path d="m29 53v2a4 4 0 0 1 4 4v2h2v-8z"/><path d="m46 46h-2l-2 11 3 4 3-4z"/><path d="m42 44h6a0 0 0 0 1 0 0v1a3 3 0 0 1 -3 3 3 3 0 0 1 -3-3v-1a0 0 0 0 1 0 0z"/></g><path d="m45 44v-6h-6a9.645 9.645 0 0 0 -2.81.41l2.83 8.82z" fill="#a8dba8"/><path d="m45 44v-6h6a9.645 9.645 0 0 1 2.81.41l-2.83 8.82z" fill="#a8dba8"/><path d="m50 41-5 3-5-3v-8h10z" fill="#fff"/><path d="m43 39a9.706 9.706 0 0 1 -1.21-.08 9.932 9.932 0 0 0 6.58 3.06l-3.37 2.02-5-3v-8h10v3.14a9.947 9.947 0 0 1 -7 2.86z" fill="#cff09e"/><path d="m29 7h20a10 10 0 0 1 10 10 5 5 0 0 1 -5 5h-17a8 8 0 0 1 -8-8v-7a0 0 0 0 1 0 0z" fill="#79bd9a"/><path d="m54 19h2a3 3 0 0 1 3 3 5 5 0 0 1 -5 5 0 0 0 0 1 0 0v-8a0 0 0 0 1 0 0z" fill="#fff"/><path d="m58.27 24.6a5.145 5.145 0 0 1 -.73.94 5.022 5.022 0 0 1 -3.54 1.46v-8h2v2a3.988 3.988 0 0 0 2.27 3.6z" fill="#cff09e"/><path d="m31 19a5 5 0 0 1 5 5 3 3 0 0 1 -3 3h-2a0 0 0 0 1 0 0v-8a0 0 0 0 1 0 0z" fill="#fff" transform="matrix(-1 0 0 -1 67 46)"/><path d="m31.73 24.6a5.145 5.145 0 0 0 .73.94 5.022 5.022 0 0 0 3.54 1.46v-8h-2v2a3.988 3.988 0 0 1 -2.27 3.6z" fill="#cff09e"/><path d="m45 37a10 10 0 0 1 -10-10v-9a6.874 6.874 0 0 0 5-5l.49.35a24.966 24.966 0 0 0 14.51 4.65v9a10 10 0 0 1 -10 10z" fill="#fff"/><path d="m38 18.36v5.64a10 10 0 0 0 10 10 9.807 9.807 0 0 0 5.41-1.61 9.992 9.992 0 0 1 -18.41-5.39v-9a6.893 6.893 0 0 0 5-5l.49.35a24.992 24.992 0 0 0 14.51 4.65v2a24.992 24.992 0 0 1 -14.51-4.65l-.49-.35a6.837 6.837 0 0 1 -2 3.36z" fill="#cff09e"/><path d="m45.086 33a3.836 3.836 0 0 0 2.879.345l3.035-.759a9.228 9.228 0 0 1 -3.577-2.4 1.977 1.977 0 0 0 -2.423-.323 1.977 1.977 0 0 0 -2.423.318 9.228 9.228 0 0 1 -3.577 2.405l3.035.759a3.836 3.836 0 0 0 2.879-.345z" fill="#cff09e"/><path d="m45.086 32.414a3.836 3.836 0 0 0 2.879.345l3.035-.759a9.228 9.228 0 0 1 -3.577-2.4 1.977 1.977 0 0 0 -2.423-.323 1.977 1.977 0 0 0 -2.423.318 9.228 9.228 0 0 1 -3.577 2.405l3.035.759a3.836 3.836 0 0 0 2.879-.345z" fill="#79bd9a"/></g><g id="Stroke_Close_copy" fill="#3b8686" data-name="Stroke Close copy"><circle cx="23" cy="25" r="1"/><circle cx="15" cy="25" r="1"/><circle cx="19" cy="49" r="1"/><circle cx="19" cy="53" r="1"/><circle cx="19" cy="57" r="1"/><path d="m22 22h3a1 1 0 0 0 0-2h-3a1 1 0 0 0 0 2z"/><path d="m13 22h3a1 1 0 0 0 0-2h-3a1 1 0 0 0 0 2z"/><path d="m20.293 30.293a1.831 1.831 0 0 1 -2.586 0 1 1 0 0 0 -1.414 1.414 3.831 3.831 0 0 0 5.414 0 1 1 0 0 0 -1.414-1.414z"/><path d="m25.707 29.293-1-1a1 1 0 0 0 -1.414 1.414l1 1a1 1 0 0 0 1.414-1.414z"/><path d="m13.293 28.293-1 1a1 1 0 1 0 1.414 1.414l1-1a1 1 0 0 0 -1.414-1.414z"/><path d="m18.2 12.4a13.081 13.081 0 0 0 7.8 2.6 1 1 0 0 0 0-2 11.069 11.069 0 0 1 -6.6-2.2l-.8-.6a1 1 0 0 0 -1.2 1.6z"/><path d="m51 37v-.792a11 11 0 0 0 4.967-8.557 6.008 6.008 0 0 0 4.033-5.651 3.978 3.978 0 0 0 -.688-2.24 5.927 5.927 0 0 0 .688-2.76 11.013 11.013 0 0 0 -11-11h-20a1 1 0 0 0 -1 1v1.312a13.966 13.966 0 0 0 -22.715 7.868 44.918 44.918 0 0 1 -1.8 6.679l-.6 1.595a5.828 5.828 0 0 0 .462 5.071l.294.49a3.845 3.845 0 0 1 0 3.965 5.847 5.847 0 0 0 0 6.035l.084.14a5.839 5.839 0 0 0 .715.949 10.945 10.945 0 0 0 -2.44 6.896v13a1 1 0 0 0 2 0v-7h4v7a1 1 0 0 0 2 0v-11a1 1 0 0 0 -2 0v2h-4v-4a9 9 0 0 1 5.044-8.071l-.02.207a6 6 0 0 0 9.41 5.483l.566-.4.567.4a6 6 0 0 0 9.409-5.482l-.02-.213a8.97 8.97 0 0 1 1.618 1.018 10.948 10.948 0 0 0 -2.574 7.058v13a1 1 0 0 0 2 0v-7h4v7a1 1 0 0 0 2 0v-11a1 1 0 0 0 -2 0v2h-4v-4a9.011 9.011 0 0 1 5.551-8.31l2.516 7.846a1 1 0 0 0 1.428.574l2.051-1.11a3.992 3.992 0 0 0 1.043 1.174l-1.572 8.645a1 1 0 0 0 .183.779l3 4a1 1 0 0 0 1.6 0l3-4a1 1 0 0 0 .183-.779l-1.572-8.645a3.992 3.992 0 0 0 1.043-1.174l2.051 1.108a1 1 0 0 0 1.428-.574l2.516-7.846a9.011 9.011 0 0 1 5.551 8.312v4h-4v-2a1 1 0 0 0 -2 0v11a1 1 0 0 0 2 0v-7h4v7a1 1 0 0 0 2 0v-13a11.013 11.013 0 0 0 -11-11zm-6 5.834-4-2.4v-3.2a10.853 10.853 0 0 0 8 0v3.2zm-6-5.834a10.936 10.936 0 0 0 -3.172.471 4.764 4.764 0 0 0 -1.028-3.571 3.015 3.015 0 0 1 -.241-3.452 11.046 11.046 0 0 0 4.441 5.76zm-20 5.834-4-2.4v-3.2a10.853 10.853 0 0 0 8 0v3.2zm0-6.834a9.011 9.011 0 0 1 -9-9v-8.26a7.85 7.85 0 0 0 4.506-4.162 25.791 25.791 0 0 0 13.494 4.403v8.019a9.011 9.011 0 0 1 -9 9zm6 .208a10.992 10.992 0 0 0 4.967-8.561 5.942 5.942 0 0 0 2.025-1.2 5.948 5.948 0 0 0 2.037 1.2 2.917 2.917 0 0 1 -.41.725l-.4.5a5.028 5.028 0 0 0 .038 6.3 3 3 0 0 1 .146 3.375 11.051 11.051 0 0 0 -1.403.977 10.916 10.916 0 0 0 -7-2.524zm9-10.752a4.01 4.01 0 0 1 -2-3.456 2 2 0 0 1 2-2zm-3.252-.577a3.994 3.994 0 0 1 -.748.565v-5.816c.149.185.3.369.464.542a3.943 3.943 0 0 0 -.464 1.83 5.965 5.965 0 0 0 .748 2.879zm23.252 2.121a9 9 0 0 1 -18 0v-8.26a7.847 7.847 0 0 0 4.506-4.162 25.78 25.78 0 0 0 13.494 4.403zm2-1.544v-5.456a2 2 0 0 1 2 2 4.01 4.01 0 0 1 -2 3.456zm-26-17.456h19a9.01 9.01 0 0 1 9 9 3.934 3.934 0 0 1 -.271 1.409 3.954 3.954 0 0 0 -1.729-.409 1 1 0 0 0 -1-1 23.825 23.825 0 0 1 -13.929-4.464l-.49-.35a1 1 0 0 0 -1.551.571 5.864 5.864 0 0 1 -4.272 4.273 1 1 0 0 0 -.758.97 3.972 3.972 0 0 0 -2.2.666 6.982 6.982 0 0 1 -1.8-4.666zm-11-1a11.954 11.954 0 0 1 9 4.1v2.9a8.95 8.95 0 0 0 .518 2.981 23.8 23.8 0 0 1 -13.447-4.445l-.49-.35a1 1 0 0 0 -1.551.571 5.863 5.863 0 0 1 -4.273 4.273 1 1 0 0 0 -.757.97 3.936 3.936 0 0 0 -1.1.172c.122-.547.235-1.081.34-1.591a12.035 12.035 0 0 1 11.76-9.581zm-13 15a2 2 0 0 1 2-2v5.456a4.01 4.01 0 0 1 -2-3.456zm-.159 17.666a3.813 3.813 0 0 1 -.4-.541l-.085-.14a3.852 3.852 0 0 1 0-3.974 5.84 5.84 0 0 0 0-6.025l-.293-.49a3.836 3.836 0 0 1 -.3-3.34l.056-.151a6 6 0 0 0 3.217 2.646 11 11 0 0 0 4.964 8.557v.792a10.943 10.943 0 0 0 -7.159 2.666zm7.146 4.491a3.911 3.911 0 0 1 -1.971-3.834l.1-1.122a8.963 8.963 0 0 1 1.884-.201v2a1 1 0 0 0 .485.857l3.67 2.2a3.9 3.9 0 0 1 -4.168.1zm14-3.833a3.993 3.993 0 0 1 -6.139 3.735l3.67-2.2a1 1 0 0 0 .482-.859v-2a9.043 9.043 0 0 1 1.88.2zm10.49-1.185a9.03 9.03 0 0 1 1.523-.139v2a1 1 0 0 0 .485.857l3.495 2.1-3.38 1.821zm9.461 17.611-1.938 2.583-1.938-2.583 1.417-7.8a2.973 2.973 0 0 0 1.042 0zm-1.938-9.75a2 2 0 0 1 -1.7-.947l1.7-.916 1.7.916a2 2 0 0 1 -1.7.947zm5.4-1.222-3.38-1.824 3.495-2.1a1 1 0 0 0 .485-.854v-2a9.03 9.03 0 0 1 1.526.139z"/><circle cx="49" cy="25" r="1"/><circle cx="41" cy="25" r="1"/><path d="m48 22h3a1 1 0 0 0 0-2h-3a1 1 0 0 0 0 2z"/><path d="m38 21a1 1 0 0 0 1 1h3a1 1 0 0 0 0-2h-3a1 1 0 0 0 -1 1z"/><path d="m38.684 31.051a1 1 0 0 0 .074 1.919l3.035.759a5.381 5.381 0 0 0 1.3.164 4.631 4.631 0 0 0 1.906-.4 4.9 4.9 0 0 0 3.207.235l3.035-.759a1 1 0 0 0 .074-1.919 8.129 8.129 0 0 1 -3.181-2.158 3 3 0 0 0 -3.134-.714 3 3 0 0 0 -3.135.714 8.122 8.122 0 0 1 -3.181 2.159zm5.812-.91a1 1 0 0 0 1.008 0 .98.98 0 0 1 1.207.156 13.589 13.589 0 0 0 1.543 1.359l-.531.133a2.856 2.856 0 0 1 -2.128-.236 1 1 0 0 0 -.509-.139h-.172a1 1 0 0 0 -.509.139 2.856 2.856 0 0 1 -2.128.236l-.531-.133a13.589 13.589 0 0 0 1.543-1.356.979.979 0 0 1 1.211-.159z"/><path d="m45.2 12.4a13.081 13.081 0 0 0 7.8 2.6 1 1 0 0 0 0-2 11.069 11.069 0 0 1 -6.6-2.2l-.8-.6a1 1 0 0 0 -1.2 1.6z"/><path d="m33 16a.989.989 0 0 0 .315-.051l.156-.052a5.154 5.154 0 0 0 3.529-4.897 1 1 0 0 0 -2 0 3.159 3.159 0 0 1 -2.161 3l-.154.051a1 1 0 0 0 .315 1.949z"/></g></g></svg>