<svg id="Capa_1" enable-background="new 0 0 512 512" height="512" viewBox="0 0 512 512" width="512" xmlns="http://www.w3.org/2000/svg"><g><g><g><g><circle cx="256" cy="256" fill="#ecf4ff" r="248.5"/><path d="m256 7.5c-5.038 0-10.036.168-15 .464 130.256 7.758 233.5 115.831 233.5 248.036s-103.244 240.278-233.5 248.036c4.964.296 9.962.464 15 .464 137.243 0 248.5-111.257 248.5-248.5s-111.257-248.5-248.5-248.5z" fill="#ddeafb"/><circle cx="256" cy="256" fill="#cbe2ff" r="181.321"/><path d="m256 74.679c-5.052 0-10.053.217-15 .622 93.122 7.627 166.321 85.61 166.321 180.699s-73.199 173.072-166.321 180.699c4.947.405 9.948.622 15 .622 100.141 0 181.321-81.181 181.321-181.321s-81.18-181.321-181.321-181.321z" fill="#bed8fb"/></g><g><g><circle cx="375.2" cy="336.815" fill="#e5979d" r="54.5"/><path d="m413.737 298.278c-2.567-2.567-5.33-4.817-8.235-6.765 14.202 21.183 11.952 50.122-6.765 68.839s-47.656 20.967-68.839 6.765c1.948 2.905 4.198 5.668 6.765 8.235 21.284 21.283 55.791 21.283 77.075 0 21.283-21.283 21.283-55.79-.001-77.074z" fill="#e17f85"/></g><g><circle cx="405.2" cy="276.815" fill="#e17f85" r="54.5"/><path d="m435.474 231.481c8.211 12.263 11.448 27.798 7.67 43.265-7.142 29.24-36.635 47.154-65.875 40.013-6.365-1.555-12.192-4.17-17.343-7.61 7.312 10.921 18.569 19.246 32.343 22.61 29.24 7.142 58.733-10.772 65.875-40.013 5.587-22.875-4.162-45.902-22.67-58.265z" fill="#de646e"/></g></g><g><g><circle cx="92.914" cy="232.456" fill="#e5979d" r="54.5"/><path d="m123.197 187.142c8.803 13.167 11.828 30.038 6.803 46.355-8.859 28.767-39.36 44.904-68.127 36.045-5.184-1.597-9.951-3.905-14.243-6.771 6.716 10.046 16.794 17.938 29.243 21.771 28.766 8.859 59.268-7.278 68.127-36.045 7.262-23.582-2.282-48.32-21.803-61.355z" fill="#e17f85"/></g><g><circle cx="131.918" cy="177.879" fill="#e17f85" r="54.5"/><path d="m172.668 141.689c-8.805-9.914-20.417-15.852-32.577-17.689.88.865 1.745 1.753 2.577 2.689 19.987 22.506 17.945 56.952-4.56 76.939-12.591 11.183-28.919 15.464-44.363 13.13 20.265 19.935 52.794 21.025 74.363 1.87 22.505-19.986 24.547-54.433 4.56-76.939z" fill="#de646e"/></g></g><g><g><g><path d="m306.521 357.818c.678-2.333 2.474-4.169 4.787-4.911 24.596-7.892 46.843-23.736 62.515-46.738 8.322-12.215 14.088-25.417 17.418-38.973 3.428-13.954-4.107-26.288-5.71-40.303s-1.079-28.886-7.452-41.583c-1.124-2.239.468-4.571-2.027-4.798-42.041-3.819-84.842 14.666-110.297 52.027-15.671 23.001-22.276 49.504-20.62 75.281.156 2.425-.896 4.768-2.819 6.252l-39.441 30.452c-3.139 2.424-1.702 7.439 2.245 7.831l52.053 5.175c1.482.147 2.788 1.037 3.467 2.362l23.864 46.549c1.809 3.529 7.003 3.032 8.11-.776z" fill="#d3ced5"/><g><path d="m378.079 185.31c-1.124-2.239.468-4.571-2.027-4.797-1.477-.135-2.955-.234-4.433-.313 13.707 35.579 10.298 77.075-12.796 110.97-15.671 23.002-37.919 38.847-62.515 46.738-2.313.742-4.109 2.578-4.787 4.911l-13.908 47.849c-.133.459-.329.867-.568 1.229l7.458 14.548c1.809 3.529 7.003 3.032 8.11-.776l13.908-47.849c.678-2.333 2.474-4.169 4.787-4.911 24.596-7.892 46.843-23.736 62.515-46.738 8.322-12.215 14.088-25.416 17.418-38.973.296-1.203-.05-2.303.194-3.509 5.41-26.756-1.159-54.081-13.356-78.379z" fill="#c3bec6"/></g><path d="m376.038 180.511c-28.291-2.566-56.921 4.975-80.382 21.564 5.811 16.961 19.037 34.122 37.946 47.005s39.719 18.912 57.631 18.114c6.854-27.904-.05-52.144-12.79-77.534-1.128-2.247.099-8.922-2.405-9.149z" fill="#f7f6f7"/><path d="m394.662 236.451c-.394-8.475-.642-27.398-12.777-51.958-1.127-2.243-3.341-3.752-5.841-3.981-1.475-.134-2.95-.233-4.426-.312 10.414 27.031 10.936 57.475.464 85.408 6.589 1.316 13.036 1.858 19.142 1.587.063-.256.126-.512.187-.768-.024-1.529 3.254-8.663 3.251-29.976z" fill="#e2dfe3"/></g></g><g><g><g><path d="m206.135 272.965c1.039-2.196 3.103-3.725 5.504-4.092 25.535-3.899 50.01-16.022 69.125-36.252 10.151-10.743 17.934-22.866 23.368-35.725 5.511-13.041 2.441-25.695 3.139-39.578.718-14.297 2.311-27.716-2.035-41.46-.755-2.388.048-6.339-2.38-6.957-40.906-10.426-86.094 1.051-117.142 33.91-19.115 20.23-29.832 45.353-32.278 71.068-.23 2.419-1.639 4.566-3.773 5.727l-43.763 23.826c-3.484 1.896-2.858 7.076.977 8.088l50.578 13.35c1.44.38 2.588 1.465 3.049 2.881l16.194 49.74c1.228 3.771 6.434 4.103 8.13.517z" fill="#d3ced5"/><g><path d="m302.835 114.715c-.755-2.389 2.45-5.194.023-5.813-2.498-.637-5.012-1.188-7.538-1.662 9.033 38.076-.671 79.812-29.555 110.382-19.115 20.23-43.59 32.354-69.125 36.252-2.402.367-4.466 1.896-5.504 4.092l-20.031 42.346 5.593 17.181c1.228 3.771 6.434 4.103 8.13.518l21.307-45.044c1.039-2.196 3.103-3.725 5.504-4.092 25.535-3.898 50.01-16.021 69.125-36.252 10.151-10.743 17.934-22.866 23.368-35.724 11.188-26.473 7.269-55.094-1.297-82.184z" fill="#c3bec6"/></g><path d="m302.844 108.898c-27.528-7.012-56.991-4.099-82.782 8.567 3.053 17.667 13.395 36.705 30.026 52.42s36.225 24.961 54.036 27.008c11.185-26.467 12.424-56.048 3.864-83.134-.757-2.397-2.707-4.24-5.144-4.861z" fill="#f7f6f7"/><path d="m313.565 148.076c-.457-1.188 1.214-8.705-4.576-30.965-.319-1.122-.648-2.241-1-3.354-.758-2.396-2.708-4.238-5.144-4.858-.004-.001-.009-.002-.013-.004-1.124-.285-2.252-.55-3.381-.802-1.362-.304-2.731-.582-4.1-.848-.01-.002-.02-.004-.03-.006 6.693 28.215 3.087 58.435-10.976 84.636 6.674 2.584 13.34 4.277 19.773 5.018 5.913-14.016 9.831-30.771 9.447-48.817z" fill="#e2dfe3"/></g></g></g></g><g><g><path d="m229.549 415.919c2.053 2.053 1.923 5.41-.261 7.323-31.397 27.496-79.181 26.273-109.121-3.667s-31.163-77.724-3.667-109.121c1.913-2.184 5.27-2.314 7.323-.261z" fill="#ffe07d"/></g></g></g></g><path d="m112.495 195.129c3.097-2.75 3.378-7.491.628-10.588-2.75-3.098-7.491-3.378-10.588-.628-3.097 2.751-3.378 7.491-.628 10.589 2.75 3.097 7.491 3.378 10.588.627zm-37.839 30.742c1.219-3.959-1.002-8.156-4.96-9.375-3.959-1.22-8.156 1.001-9.375 4.96s1.002 8.156 4.96 9.375c3.958 1.22 8.156-1.001 9.375-4.96zm282.1-20.086c-4.07.771-6.744 4.696-5.972 8.766s4.696 6.743 8.765 5.973c4.07-.771 6.744-4.696 5.972-8.766-.771-4.07-4.695-6.744-8.765-5.973zm-218.797-13.704c3.097-2.75 3.378-7.49.628-10.588-2.751-3.097-7.491-3.378-10.588-.627-3.097 2.75-3.378 7.49-.628 10.588 2.75 3.097 7.491 3.378 10.588.627zm15-32.889c3.097-2.75 3.378-7.49.628-10.588-2.751-3.097-7.491-3.378-10.588-.627-3.097 2.75-3.378 7.49-.628 10.588 2.751 3.097 7.491 3.378 10.588.627zm-33.227 3.58c3.097-2.751 3.378-7.491.628-10.588-2.751-3.098-7.491-3.379-10.588-.628-3.097 2.75-3.378 7.491-.628 10.588 2.75 3.098 7.491 3.378 10.588.628zm269.828 187.102c-2.929 2.929-2.929 7.678 0 10.606 2.929 2.929 7.678 2.929 10.607 0s2.929-7.678 0-10.606c-2.93-2.929-7.678-2.929-10.607 0zm36.889-96.837c.983-4.024-1.482-8.083-5.506-9.065-4.024-.983-8.083 1.482-9.065 5.506-.983 4.024 1.482 8.083 5.506 9.065 4.023.983 8.082-1.482 9.065-5.506zm-18.347 43.507c-4.024-.982-8.083 1.482-9.065 5.507-.983 4.023 1.482 8.082 5.506 9.065 4.024.982 8.083-1.482 9.065-5.507.983-4.023-1.482-8.082-5.506-9.065zm25.216-21.528c-4.024-.983-8.083 1.482-9.065 5.506s1.482 8.082 5.506 9.065c4.024.982 8.083-1.482 9.065-5.507.983-4.023-1.482-8.082-5.506-9.064zm3.702-200.036c-48.352-48.351-112.64-74.98-181.02-74.98s-132.667 26.629-181.02 74.98c-48.351 48.352-74.98 112.64-74.98 181.02s26.629 132.668 74.98 181.02c48.353 48.351 112.64 74.98 181.02 74.98s132.668-26.629 181.02-74.98 74.98-112.64 74.98-181.02-26.629-132.668-74.98-181.02zm-10.607 351.433c-45.518 45.519-106.039 70.587-170.413 70.587s-124.894-25.068-170.413-70.587-70.587-106.039-70.587-170.413 25.068-124.894 70.587-170.413 106.039-70.587 170.413-70.587 124.895 25.068 170.413 70.587 70.587 106.039 70.587 170.413-25.068 124.895-70.587 170.413zm31.778-181.784c-4.121-6.785-9.4-12.593-15.542-17.248-6.643-43.65-28.518-83.705-61.853-113.085-34.472-30.384-78.792-47.116-124.796-47.116-46.996 0-91.822 17.294-126.58 48.741-14.293.552-27.838 5.979-38.67 15.602-12.953 11.503-19.928 27.26-20.715 43.333-17.4 6.91-30.802 21.268-36.373 39.356-9.602 31.168 6.712 64.229 36.606 75.94 3.671 20.115 10.551 39.325 20.473 57.209-4.872 27.763 3.179 56.575 24.121 77.518 27.231 27.231 68.592 33.002 101.949 15.851 12.816 2.703 25.982 4.091 39.188 4.091 7.318 0 14.689-.424 21.908-1.259 4.114-.476 7.064-4.197 6.588-8.312-.476-4.114-4.198-7.068-8.312-6.588-6.648.77-13.439 1.159-20.184 1.159-7.16 0-14.303-.452-21.377-1.319 2.358-2.257 3.773-5.369 3.881-8.64.113-3.441-1.217-6.812-3.652-9.246l-105.726-105.727c-2.435-2.435-5.811-3.745-9.248-3.651-3.454.115-6.742 1.673-9.021 4.275-5.7 6.509-10.257 13.658-13.684 21.19-4.675-10.469-8.284-21.357-10.79-32.577 2.232.242 4.462.365 6.68.365 19.603 0 38.296-9.329 50.063-25.646l10.773 2.844 15.667 48.125c1.517 4.658 5.656 7.869 10.545 8.18 4.838.307 9.405-2.341 11.497-6.777l21.259-44.943c9.911-1.521 19.452-4.166 28.526-7.827-3.305 12.922-4.596 26.4-3.754 39.764l-39.357 30.388c-3.869 2.991-5.5 7.963-4.154 12.666 1.346 4.706 5.364 8.065 10.25 8.561l50.363 5.003 23.084 45.036c2.059 4.016 6.117 6.467 10.557 6.466 5.278-.001 9.977-3.486 11.43-8.564l13.877-47.74c1.189-.383 2.359-.802 3.531-1.216 3.09 8.157 7.89 15.599 14.135 21.846 7.779 7.778 17.131 13.04 27.04 15.812-15.085 11.044-31.72 19.503-49.651 25.207-3.947 1.256-6.129 5.474-4.874 9.421 1.269 3.992 5.561 6.102 9.421 4.874 24.576-7.818 46.91-20.393 66.439-37.365 14.335-1.042 28.376-7.013 39.313-17.949 13.373-13.373 19.816-31.921 17.792-50.524 14.419-8.552 24.606-22.313 28.589-38.598 3.936-16.092 1.367-32.749-7.232-46.906zm-235.863 174.675c-10.052 8.177-21.777 13.213-33.894 15.18l-3.093-52.167zm-48.869 16.053c-15.141-.679-30.079-6.062-42.403-16.065l39.13-39.13zm-53.021-117.943 36.986 36.986-52.165-3.094c1.966-12.116 7.002-23.84 15.179-33.892zm39.141 52.141-39.13 39.131c-10.002-12.323-15.385-27.263-16.065-42.403zm96.421-287.375c42.35 0 83.147 15.402 114.879 43.369 27.778 24.483 46.91 57.011 54.825 92.75-8.244-2.875-17.124-4.007-25.71-3.27-2.166-11.628-5.958-23.05-11.412-33.915-2.268-4.515-6.806-7.608-11.854-8.074-20.243-1.833-40.892 1.314-59.709 8.908 5.88-22.812 5.469-47.213-1.883-70.465-1.526-4.825-5.521-8.599-10.426-9.85-45.266-11.546-93.417 3.053-125.059 36.703-7.91-9.554-18.318-16.406-29.95-19.862 30.334-23.504 67.515-36.294 106.299-36.294zm129.151 177.502c-15.471-.679-32.401-6.632-47.33-16.801-13.567-9.24-24.49-21.23-31.105-34.048 1.186-2.292 2.304-4.612 3.347-6.965 19.66-10.974 42.699-15.918 65.175-13.901 11.28 22.536 14.488 47.767 9.913 71.715zm-284.44-116.946c20.529-18.23 52.824-14.927 69.15 7.408-13.482 18.402-21.672 39.874-23.881 62.93l-20.789 11.316c-10.974-1.575-20.997-6.956-28.414-15.3-17.208-19.379-15.444-49.145 3.934-66.354zm-21.633 134.636c-24.766-7.63-38.708-33.982-31.08-58.745 3.754-12.192 12.199-22.16 23.297-27.906 2.142 10.2 6.866 19.996 14.269 28.332 5.923 6.664 13.108 11.89 21.067 15.442-6.036 2.279-11.258 7.382-10.432 14.213.588 4.863 4.028 8.813 8.765 10.063l22.239 5.87c-12.058 12.917-30.597 18.13-48.125 12.731zm131.429-15.913c-4.877.746-9.045 3.848-11.151 8.299l-17.954 37.955-13.767-42.285c-1.256-3.855-4.347-6.774-8.266-7.81l-42.995-11.349 36.878-20.075c4.324-2.355 7.185-6.693 7.652-11.604 2.394-25.168 12.858-48.207 30.263-66.626 7.153-7.571 15.22-13.997 23.919-19.213 2.134 7.004 5.206 13.981 9.229 20.842 2.116 3.609 6.742 4.741 10.264 2.676 3.573-2.096 4.771-6.69 2.676-10.264-3.868-6.596-6.766-13.481-8.552-20.205 22.414-9.593 47.747-11.858 72.173-5.664 7.57 24.042 6.742 49.469-1.572 72.395-14.138-2.875-28.587-10.382-41.246-21.526-3.108-2.736-7.847-2.436-10.585.673-2.737 3.109-2.436 7.849.673 10.585 13.677 12.042 29.342 20.434 44.991 24.25-4.714 8.978-10.671 17.391-17.822 24.959-17.352 18.361-39.683 30.143-64.808 33.987zm98.514 84.309c-4.693 1.505-8.319 5.224-9.703 9.959l-11.719 40.316-20.292-39.588c-1.851-3.593-5.358-5.98-9.396-6.388l-44.248-4.396 33.235-25.662c3.903-3.009 6.04-7.75 5.716-12.668-1.052-16.467 1.574-33.143 7.588-48.393 9.447-5.815 18.184-12.89 26.013-21.177 4.272-4.521 8.147-9.321 11.658-14.329 7.764 12.03 18.624 23.062 31.504 31.836 16.433 11.192 34.513 17.831 51.892 19.205-3.234 9.609-7.784 18.859-13.648 27.463-14.268 20.947-34.534 36.1-58.6 43.822zm99.416 24.278c-18.326 18.328-48.146 18.328-66.473 0-4.865-4.864-8.556-10.688-10.889-17.064 13.702-6.729 25.972-15.806 36.41-26.954 15.312 11.772 36.106 15.806 54.708 10.438.102 12.476-4.753 24.577-13.756 33.58zm42.417-82.075c-2.978 12.195-10.526 22.5-21.255 29.017-16.211 9.846-37.443 8.759-52.497-2.495 9.974-13.507 17.153-28.841 21.152-44.669 3.074-12.166 4.426-27.541 3.622-39.895 17.43-1.315 34.345 7.422 43.495 22.487 6.518 10.731 8.465 23.357 5.483 35.555zm-132.569 19.869-29.867-23.129c-3.274-2.537-7.986-1.939-10.521 1.338-2.536 3.274-1.938 7.985 1.338 10.521l29.867 23.129c3.249 2.52 7.97 1.956 10.521-1.338 2.536-3.274 1.938-7.985-1.338-10.521zm-121.695-107.25c-2.928-2.931-7.677-2.932-10.607-.005-2.93 2.928-2.932 7.677-.004 10.606l26.7 26.723c2.928 2.93 7.676 2.932 10.606.005 2.931-2.928 2.933-7.677.005-10.606zm83.639-54.795c4.141-.117 7.402-3.568 7.284-7.709s-3.569-7.402-7.71-7.284c-4.14.117-7.402 3.568-7.284 7.709s3.57 7.402 7.71 7.284zm76.602 209.389c-2.929 2.93-2.929 7.678 0 10.606 2.929 2.93 7.678 2.93 10.607 0 2.929-2.929 2.929-7.677 0-10.606s-7.678-2.929-10.607 0zm-139.597-175.22c-2.928-2.931-7.676-2.932-10.606-.005-2.93 2.928-2.933 7.677-.005 10.606l26.699 26.724c2.928 2.93 7.676 2.933 10.606.005s2.933-7.677.005-10.606zm-136.926 67.944c-3.959-1.22-8.156 1.001-9.375 4.96s1.002 8.156 4.96 9.375c3.959 1.22 8.156-1.002 9.375-4.96 1.219-3.959-1.002-8.156-4.96-9.375zm255.844 36.86-29.867-23.129c-3.274-2.538-7.986-1.938-10.521 1.338-2.536 3.274-1.938 7.985 1.338 10.521l29.867 23.129c3.249 2.52 7.97 1.956 10.521-1.338 2.536-3.274 1.938-7.985-1.338-10.521z"/></g></svg>