<svg id="Fill_Outline" height="512" viewBox="0 0 64 64" width="512" xmlns="http://www.w3.org/2000/svg"><g id="Color"><g><g><path d="m44.409 35.487c-.029-.03-.058-.059-.087-.088-2.268-2.26-3.449-5.32-3.281-8.517.209-3.983-1.405-8.041-4.852-10.82-4.674-3.767-11.514-3.782-16.201-.032-6.165 4.932-6.536 13.956-1.112 19.379l12.728 12.728c3.574 3.574 9.406 3.514 12.904-.18 3.271-3.456 3.225-9.065-.099-12.47z" fill="#ff7373"/><path d="m39.188 42.552-12.728-12.728c-4.384-4.384-4.978-11.119-1.79-16.145-1.676.448-3.276 1.226-4.682 2.351-6.165 4.932-6.536 13.956-1.112 19.379l12.728 12.728c3.574 3.574 9.406 3.514 12.904-.18.787-.831 1.377-1.788 1.78-2.808-2.542.207-5.155-.653-7.1-2.597z" fill="#e53935"/><path d="m38.303 38.067 1.87.096c.959.049 1.869.575 2.272 1.447.849 1.836.564 4.111-.842 5.596l-.099.102c-1.918 1.971-5.078 1.993-7.023.048-.8-.8-.964-2.038-.4-3.019l.071-.123c.509-.885-.48-1.875-1.365-1.365l-.123.071c-.981.564-2.219.4-3.019-.4l-7.939-7.939c-3.509-3.509-3.509-9.219 0-12.728.244-.244.508-.48.782-.7.211-.169.403-.327.584-.474 1.358-1.107 3.318-1.051 4.615.127.721.655 1.84.589 2.479-.146.518-.596 1.383-.79 2.082-.423.5.263.98.576 1.432.94 2.293 1.848 3.52 4.58 3.367 7.495-.117 2.234.264 4.445 1.086 6.48.499 1.236.314 2.643-.417 3.757-.318.483.009 1.128.587 1.158z" fill="#e53935"/><circle cx="25.947" cy="24.095" fill="#ff7373" r="2"/><path d="m39.188 42.552-12.728-12.728c-2.975-2.975-4.2-7.032-3.686-10.904-.096.078-.183.15-.287.233-.275.22-.538.455-.782.699-3.509 3.509-3.509 9.219 0 12.728l7.939 7.939c.8.8 2.038.964 3.019.4l.123-.071c.885-.509 1.875.48 1.365 1.365l-.071.123c-.564.981-.4 2.219.4 3.019 1.945 1.945 5.105 1.923 7.023-.048l.099-.102c.206-.218.381-.457.539-.705-1.072-.436-2.082-1.077-2.953-1.948z" fill="#c62828"/><circle cx="26" cy="24" fill="#ef5350" r="1"/></g><path d="m32 3c-16.016 0-29 12.984-29 29s12.984 29 29 29 29-12.984 29-29-12.984-29-29-29zm-25 29c0-13.807 11.193-25 25-25 6.183 0 11.838 2.25 16.203 5.969l-35.234 35.234c-3.719-4.365-5.969-10.02-5.969-16.203zm25 25c-6.183 0-11.838-2.25-16.203-5.969l35.234-35.234c3.719 4.365 5.969 10.02 5.969 16.203 0 13.807-11.193 25-25 25z" fill="#ef5350"/><path d="m44.464 53.668c-3.67 2.115-7.923 3.332-12.464 3.332-6.183 0-11.838-2.25-16.203-5.969l4.456-4.456c-1.005-.879-1.949-1.824-2.828-2.828l-4.456 4.456c-3.719-4.365-5.969-10.02-5.969-16.203 0-4.541 1.217-8.794 3.332-12.464.539-3.609 1.722-7.006 3.426-10.074-6.561 5.316-10.758 13.435-10.758 22.538 0 16.016 12.984 29 29 29 9.103 0 17.222-4.197 22.539-10.758-3.069 1.704-6.466 2.887-10.075 3.426z" fill="#e53935"/></g></g><g id="Outline_copy"><g fill="#323232"><path d="m28.068 26.217c.566-.567.879-1.32.879-2.122s-.312-1.555-.879-2.121c-1.134-1.134-3.112-1.132-4.242 0-.566.567-.879 1.32-.879 2.122s.312 1.555.878 2.121c.566.567 1.32.879 2.122.879.801-.001 1.555-.313 2.121-.879zm-3.121-2.122c0-.267.104-.518.294-.708.188-.188.438-.292.706-.292.267 0 .518.104.707.293.189.188.293.439.293.707s-.104.518-.293.707c-.379.379-1.035.378-1.414 0-.189-.189-.293-.44-.293-.707z"/><path d="m32 2c-7.239 0-14.233 2.621-19.694 7.38-.416.363-.46.995-.097 1.411.364.416.995.458 1.411.097 5.096-4.442 11.623-6.888 18.38-6.888 15.439 0 28 12.561 28 28s-12.561 28-28 28-28-12.561-28-28c0-6.756 2.446-13.283 6.888-18.381.363-.416.319-1.048-.097-1.411-.414-.362-1.048-.319-1.411.097-4.759 5.462-7.38 12.456-7.38 19.695 0 16.542 13.458 30 30 30s30-13.458 30-30-13.458-30-30-30z"/><path d="m29.83 6.088c-12.517 1.018-22.724 11.225-23.742 23.742-.567 6.969 1.606 13.725 6.12 19.021.181.212.442.34.721.351.014 0 .026.001.04.001.265 0 .52-.105.707-.293l3.703-3.703c.391-.39.391-1.023 0-1.414s-1.023-.391-1.414 0l-2.92 2.92c-3.699-4.754-5.457-10.649-4.963-16.721.939-11.551 10.359-20.97 21.91-21.91 6.072-.496 11.969 1.264 16.721 4.963l-9.395 9.395c-.633-1.567-1.654-2.947-3.011-4.041-.496-.4-1.033-.752-1.594-1.047-1.09-.572-2.478-.297-3.303.652-.131.151-.313.241-.513.252-.207.017-.392-.056-.539-.19-1.676-1.523-4.164-1.59-5.92-.163-.428.349-.492.979-.144 1.407.351.428.979.493 1.407.144.982-.799 2.374-.759 3.312.093.55.499 1.255.754 2.002.706.74-.044 1.417-.376 1.904-.937.224-.257.588-.339.862-.193.447.234.874.515 1.269.833 1.323 1.066 2.233 2.473 2.682 4.069l-10.584 10.585-2.737-2.737c-2.642-2.642-3.094-6.839-1.075-9.981.299-.464.164-1.083-.3-1.382-.466-.298-1.085-.164-1.382.301-2.524 3.927-1.959 9.174 1.343 12.476l2.737 2.737-1.415 1.415-2.736-2.736c-2.411-2.411-3.686-5.748-3.496-9.154.191-3.453 1.799-6.556 4.526-8.737 4.335-3.47 10.623-3.457 14.948.03.532.43 1.029.903 1.478 1.408.366.414.999.45 1.412.084.413-.367.45-.999.084-1.412-.521-.588-1.1-1.139-1.718-1.638-5.052-4.07-12.391-4.085-17.454-.034-3.131 2.504-5.054 6.218-5.273 10.188-.221 3.974 1.267 7.867 4.079 10.679l2.736 2.736-2.112 2.112c-.391.391-.391 1.023 0 1.414s1.023.391 1.414 0l28.703-28.703c.197-.197.304-.468.292-.747-.011-.279-.138-.54-.351-.721-5.295-4.513-12.044-6.689-19.021-6.12z"/><path d="m56.791 35.367c.556.045 1.038-.353 1.09-.902.08-.859.119-1.665.119-2.465 0-6.169-2.204-12.153-6.208-16.851-.181-.212-.442-.34-.721-.351-.279-.01-.55.094-.747.292l-35.234 35.234c-.197.197-.304.468-.292.747.011.279.138.54.351.721 4.698 4.003 10.682 6.208 16.851 6.208 11.839 0 22.186-7.993 25.163-19.437.139-.535-.182-1.081-.716-1.22-.536-.14-1.08.181-1.22.716-2.748 10.564-12.299 17.941-23.227 17.941-5.332 0-10.515-1.784-14.713-5.045l7.861-7.861 5.744 5.754c1.353 1.351 3.045 2.278 4.896 2.679.071.016.143.023.213.023.46 0 .875-.32.977-.788.117-.54-.226-1.072-.766-1.189-1.475-.32-2.825-1.06-3.904-2.139l-5.745-5.754 1.413-1.413.96.961c1.117 1.117 2.854 1.347 4.229.559l.121-.072-.073.126c-.788 1.37-.558 3.107.561 4.225 1.121 1.122 2.608 1.738 4.193 1.738h.042c1.6-.011 3.096-.648 4.21-1.794l.109-.113c1.658-1.75 2.069-4.444 1.024-6.704-.545-1.178-1.744-1.954-3.128-2.025l-1.453-.075c.735-1.344.848-2.927.288-4.312-.353-.876-.602-1.828-.777-2.818l1.763-1.763c.167 2.988 1.404 5.757 3.556 7.899l.093.094c2.961 3.031 3 8.003.09 11.083-1.09 1.15-2.476 1.943-4.007 2.293-.539.123-.875.659-.752 1.198.105.463.518.777.974.777.074 0 .149-.008.224-.025 1.918-.438 3.651-1.43 5.014-2.868 3.64-3.851 3.59-10.066-.11-13.855-.004-.003-.097-.097-.101-.101-2.081-2.072-3.143-4.827-2.986-7.758.013-.243.015-.485.011-.73 0-.003-.002-.005-.002-.008l8.907-8.907c3.26 4.194 5.044 9.376 5.044 14.708 0 .737-.036 1.482-.111 2.278-.051.55.352 1.037.902 1.089zm-19.586-1.84c.365.906.244 1.965-.327 2.834-.347.53-.383 1.185-.096 1.75s.836.922 1.469.955l1.87.096c.632.033 1.188.374 1.417.868.693 1.5.421 3.346-.651 4.478l-.101.104c-.739.76-1.73 1.183-2.791 1.19-.01 0-.019 0-.028 0-1.05 0-2.036-.409-2.779-1.152-.48-.479-.579-1.225-.242-1.81l.073-.126c.456-.794.328-1.763-.32-2.411-.646-.647-1.615-.775-2.415-.318l-.118.069c-.587.338-1.335.24-1.814-.24l-.96-.961 7.2-7.2c.167.646.371 1.274.613 1.874z"/></g></g></svg>