<svg id="Fill_Outline" height="512" viewBox="0 0 64 64" width="512" xmlns="http://www.w3.org/2000/svg"><g id="Color"><g><g><path d="m23.695 37.258c-1.169-2.502-4.145-3.582-6.646-2.414-.045.021-.082.053-.126.075-.06-.332-.148-.661-.297-.981-.935-2.002-3.316-2.866-5.317-1.931-2.002.935-2.866 3.316-1.931 5.317.567 1.213 1.667 1.999 2.889 2.23-1.175 1.155-1.569 2.958-.832 4.536.467.999 1.294 1.714 2.253 2.064-.284 1.089-.227 2.273.286 3.372.754 1.614 2.262 2.624 3.907 2.833.043.592.178 1.187.444 1.757 1.169 2.502 4.145 3.582 6.646 2.414 2.502-1.169 3.582-4.145 2.414-6.646-.754-1.614-2.262-2.624-3.907-2.833-.043-.592-.178-1.187-.444-1.757-.311-.666-.756-1.222-1.28-1.671 2.148-1.309 3.03-4.033 1.941-6.365z" fill="#52b788"/><path d="m14.318 42.808c-.226.76-.15 1.567.272 2.238.646 1.028.922 2.29.676 3.578-.127.666-.385 1.273-.735 1.806.825 1.082 2.04 1.763 3.35 1.929.043.592.178 1.187.444 1.757 1.169 2.502 4.144 3.583 6.646 2.414s3.582-4.145 2.414-6.646c-.754-1.614-2.262-2.624-3.907-2.833-.043-.592-.178-1.187-.444-1.757-.311-.666-.756-1.222-1.28-1.671 2.148-1.308 3.03-4.033 1.941-6.364-.772-1.652-2.333-2.665-4.023-2.84.104.585.119 1.194.001 1.812-.357 1.865-1.708 3.274-3.399 3.806-.965.303-1.663 1.112-1.81 2.113z" fill="#40916c"/></g><g><path d="m54.779 48.714c.232-.613.294-1.308.126-2.037-.301-1.302-1.381-2.348-2.692-2.607-2.116-.417-3.959 1.073-4.174 3.051-1.423-.303-2.987-.223-5.132 2.427-.561.694-.907 1.562-.907 2.453.001 2.761 2.239 4.999 5 4.999.57 0 1.114-.099 1.621-.278.801-.283 1.68-.37 2.456-.024.629.281 1.356.381 2.116.235 1.36-.261 2.473-1.371 2.738-2.73.206-1.059-.065-2.048-.636-2.799-.591-.779-.862-1.776-.516-2.69z" fill="#52b788"/><path d="m54.077 52.698c-.776-.346-1.655-.26-2.456.024-.507.179-1.051.278-1.621.278-1.119 0-2.141-.38-2.974-1.001 1.559-.008 2.946-.73 3.855-1.856.903-1.12 2.152-1.945 3.535-2.34.159-.045.319-.099.482-.163.032-.013.061-.03.093-.044.008-.298-.014-.605-.086-.919-.301-1.302-1.381-2.348-2.692-2.607-2.116-.417-3.959 1.073-4.174 3.051-1.423-.303-2.987-.223-5.132 2.427-.561.694-.907 1.562-.907 2.453.001 2.761 2.239 4.999 5 4.999.57 0 1.114-.099 1.621-.278.801-.283 1.68-.37 2.456-.024.629.281 1.356.381 2.116.235 1.36-.261 2.473-1.371 2.738-2.73.084-.431.071-.844.009-1.241-.667.081-1.304-.015-1.863-.264z" fill="#40916c"/></g><g><path d="m61 32c0-2.422-1.723-4.441-4.01-4.9.001-.034.01-.066.01-.1 0-2.761-2.239-5-5-5s-5 2.239-5 5c0 .446.077.869.186 1.281-2.427.769-4.186 3.038-4.186 5.719 0 .139.011.275.021.411-1.776.767-3.021 2.531-3.021 4.589 0 1.636.797 3.071 2.013 3.98-3.399 3.482-5.562 8.06-6.013 13.02h5c0-3.168 1.854-5.993 4.663-7.3.887.799 2.049 1.3 3.337 1.3 2.454 0 4.486-1.772 4.91-4.104.354.065.717.104 1.09.104 3.314 0 6-2.686 6-6 0-1.651-.668-3.146-1.747-4.231 1.061-.917 1.747-2.256 1.747-3.769z" fill="#95d5b2"/><path d="m59.966 38.507c-.125.914-.615 1.926-1.811 3.104-.849.835-1.969 1.391-3.16 1.39-2.19-.002-4.05-1.412-4.725-3.374-.419-1.22-1.015-2.371-1.927-3.283l-.72-.72c-1.209-1.209-1.637-3.027-1.005-4.616.007-.017.014-.034.021-.051.328-.808.359-1.683.182-2.526-2.232.873-3.821 3.028-3.821 5.569 0 .139.011.275.021.411-1.776.767-3.021 2.531-3.021 4.589 0 1.636.797 3.071 2.013 3.98-3.399 3.482-5.562 8.06-6.013 13.02h5c0-3.168 1.854-5.993 4.663-7.3.887.799 2.049 1.3 3.337 1.3 2.454 0 4.486-1.772 4.91-4.104.354.065.717.104 1.09.104 3.314 0 6-2.686 6-6 0-.953-.228-1.85-.624-2.651-.209.39-.36.792-.41 1.158z" fill="#52b788"/></g><g><path d="m39.574 3.058h4v27h-4z" fill="#f9dbaf" transform="matrix(.966 .259 -.259 .966 5.702 -10.196)"/><path d="m44.873 3.465-1.633 5.987c-.48 1.76-1.55 3.26-2.982 4.289l-4.11 15.339 3.864 1.035 6.988-26.08z" fill="#edb88e"/><path d="m47 4.035-3.864-1.035-1.071 4h4.141z" fill="#48cae4"/><path d="m40.993 11-1.072 4h4.141l1.072-4z" fill="#48cae4"/><g fill="#00b4d8"><path d="m47 4.04-.79 2.96h-2.3l.96-3.53z"/><path d="m45.13 11-1.07 4h-4.14l.34-1.26c.99-.71 1.81-1.65 2.37-2.74z"/></g></g><path d="m43 58h-22l-2-39h26z" fill="#bbefc1"/><path d="m25.873 24.029-.258-5.029h-6.615l2 39h22l.649-12.648c-9.795-2.324-17.239-10.852-17.776-21.323z" fill="#95d5b2"/><circle cx="16" cy="54" fill="#ff7373" r="7"/><path d="m18.966 47.667c-.336 3.553-3.325 6.333-6.966 6.333-1.062 0-2.065-.243-2.966-.667-.021.22-.034.442-.034.667 0 3.866 3.134 7 7 7s7-3.134 7-7c0-2.804-1.653-5.216-4.034-6.333z" fill="#ef5350"/><path d="m31 49.5c0-1.381-1.119-2.5-2.5-2.5-.385 0-.746.094-1.072.25-.545-.754-1.426-1.25-2.428-1.25-1.311 0-2.414.846-2.822 2.018-.059-.005-.117-.018-.178-.018-1.105 0-2 .895-2 2 0 .061.013.119.018.178-1.172.408-2.018 1.511-2.018 2.822 0 1.657 1.343 3 3 3 0 1.657 1.343 3 3 3s3-1.343 3-3c1.657 0 3-1.343 3-3 0-.473-.117-.916-.313-1.312.778-.424 1.313-1.239 1.313-2.188z" fill="#40916c"/><path d="m28.761 47.026c-.04.045-.082.088-.119.135-.359.464-.862.773-1.406.993-.237.096-.458.239-.651.431-.436.436-.62 1.023-.569 1.593-1.17.409-2.016 1.511-2.016 2.822l.237 2.896c-.867-.228-1.583-.829-1.956-1.627-.318-.68-.87-1.232-1.55-1.55-.815-.381-1.423-1.119-1.639-2.011-.663.547-1.092 1.364-1.092 2.292 0 1.657 1.343 3 3 3 0 1.657 1.343 3 3 3s3-1.343 3-3c1.657 0 3-1.343 3-3 0-.473-.117-.916-.313-1.312.778-.424 1.313-1.239 1.313-2.188 0-1.291-.982-2.341-2.239-2.474z" fill="#38805f"/><path d="m35.702 49.241c-.101-.593-.371-1.161-.83-1.551-.396-.336-.871-.571-1.386-.652-1.518-.239-2.849.665-3.307 1.979-.57-.051-1.156.133-1.593.569-.436.436-.62 1.023-.569 1.593-1.171.408-2.017 1.51-2.017 2.821 0 .772.3 1.468.779 2-.61.677-.929 1.622-.709 2.649.247 1.15 1.198 2.081 2.354 2.297 1.302.243 2.48-.359 3.106-1.346.436.247.933.4 1.47.4 1.105 0 2.07-.597 2.59-1.486.47-.803 1.121-1.453 1.924-1.924.889-.52 1.486-1.485 1.486-2.59 0-1.237-.748-2.298-1.816-2.758-.807-.346-1.335-1.136-1.482-2.001z" fill="#52b788"/><path d="m37.469 51.391c-.338.331-.634.706-.879 1.123-.468.799-1.295 1.362-2.26 1.468-.217.024-.438-.011-.648-.069-.602-.164-1.26-.049-1.732.36-.655.566-1.556.854-2.526.673-1.156-.216-2.107-1.147-2.354-2.297-.065-.304-.07-.596-.048-.881-.622.546-1.022 1.338-1.022 2.232 0 .772.3 1.468.779 2-.61.677-.929 1.622-.709 2.649.247 1.15 1.198 2.081 2.354 2.297 1.302.243 2.48-.359 3.106-1.346.436.247.933.4 1.47.4 1.105 0 2.07-.597 2.59-1.486.47-.803 1.121-1.453 1.924-1.924.889-.52 1.486-1.485 1.486-2.59 0-1.122-.619-2.095-1.531-2.609z" fill="#40916c"/><g><path d="m15.873 17.608 3.75 1.392c1.153-3.106-.43-6.56-3.536-7.713l-3.75-1.392c-1.153 3.106.43 6.559 3.536 7.713z" fill="#95d5b2"/></g><path d="m14.873 14.608c-1.236-.459-2.225-1.285-2.902-2.305.125 2.315 1.591 4.447 3.902 5.305l3.75 1.392c.678-1.826.405-3.769-.562-5.297-1.072 1.052-2.687 1.462-4.188.905z" fill="#52b788"/><g><path d="m23.127 17.608-3.75 1.392c-1.153-3.106.43-6.56 3.536-7.713l3.75-1.392c1.153 3.106-.43 6.559-3.536 7.713z" fill="#95d5b2"/></g><path d="m26.663 9.894-.63.234c-.059 2.381-1.537 4.6-3.907 5.479l-1.357.504c-1.156.429-1.826 1.708-1.401 2.866l.009.023 3.75-1.392c3.106-1.154 4.69-4.607 3.536-7.714z" fill="#52b788"/></g></g><g id="Outline_copy"><g fill="#323232"><path d="m62 32c0-.553-.447-1-1-1s-1 .447-1 1c0 1.146-.511 2.243-1.4 3.012-.21.182-.336.441-.346.719-.011.277.095.547.29.743.938.944 1.456 2.196 1.456 3.526 0 2.757-2.243 5-5 5-.29 0-.588-.028-.91-.087-.261-.051-.529.011-.749.161-.218.151-.367.383-.414.644-.346 1.901-1.997 3.282-3.927 3.282-.974 0-1.921-.37-2.667-1.043-.299-.271-.729-.334-1.092-.164-.251.117-.497.251-.738.394l.07-1.373c.008-.006.018-.008.026-.014l4-3c2.408-1.806 5.392-2.8 8.4-2.8.553 0 1-.447 1-1s-.447-1-1-1c-.334 0-.667.011-1 .033v-1.033c0-.553-.447-1-1-1s-1 .447-1 1v1.29c-1.577.304-3.107.841-4.525 1.594.701-1.304 1.083-2.739 1.145-4.2l.631-.124c2.173-.428 3.75-2.346 3.75-4.56 0-.553-.447-1-1-1s-1 .447-1 1c0 1.262-.898 2.354-2.136 2.598l-.366.072c-.115-.689-.303-1.373-.57-2.041-.205-.515-.791-.762-1.3-.558-.513.205-.763.787-.558 1.3 1.094 2.733.568 5.808-1.37 8.023l-1.966 2.246.183-3.59c.028-.552-.396-1.021-.948-1.05-.558-.035-1.021.396-1.05.948l-.869 17.052h-3.418c.854-.752 1.368-1.843 1.368-3 0-1.602-.95-3.045-2.422-3.677-.451-.194-.792-.673-.89-1.249-.147-.87-.563-1.633-1.17-2.146-.551-.469-1.2-.771-1.878-.879-1.081-.166-2.139.117-2.973.721-.814-.648-1.891-.927-2.936-.682-.735-.691-1.712-1.088-2.731-1.088-1.452 0-2.772.795-3.472 2.037-.03.005-.059.016-.089.021l-.931-18.13c-.028-.551-.494-.973-1.05-.947-.552.028-.976.499-.947 1.051l.224 4.365c-.396.027-.787.092-1.169.195-.011-.025-.023-.052-.035-.077-1.167-2.499-4.149-3.581-6.647-2.415-2.498 1.168-3.58 4.149-2.414 6.646.463.99 1.24 1.792 2.193 2.294-.735 1.366-.811 3.026-.136 4.472.442.946 1.152 1.715 2.043 2.223-.002.016-.001.033-.002.049-2.696 1.288-4.568 4.034-4.568 7.216 0 4.411 3.589 8 8 8 1.287 0 2.567-.314 3.701-.908.489-.256.678-.86.422-1.35s-.86-.68-1.35-.422c-.861.451-1.794.68-2.773.68-3.309 0-6-2.691-6-6s2.691-6 6-6c1.153 0 2.241.337 3.198.948-.07.186-.129.378-.161.58-1.242.7-2.037 2.02-2.037 3.472 0 1.896 1.327 3.489 3.102 3.898.409 1.775 2.001 3.102 3.898 3.102.485 0 .959-.093 1.406-.263.543 1.118 1.592 1.96 2.834 2.193.251.047.503.069.751.069 1.07 0 2.089-.425 2.838-1.181 1.725.551 3.705-.232 4.624-1.8.004-.007.01-.012.014-.019h6.533c.532 0 .972-.417.999-.949l.044-.854c.893.518 1.906.804 2.957.804.669 0 1.327-.113 1.954-.335.467-.166 1.146-.309 1.716-.054.846.378 1.786.479 2.712.305 1.768-.341 3.187-1.755 3.531-3.521.251-1.291-.041-2.567-.821-3.596-.432-.568-.573-1.216-.377-1.731.256-.678.331-1.408.239-2.137 3.41-.462 6.046-3.396 6.046-6.931 0-1.529-.488-2.985-1.391-4.189.893-1.072 1.391-2.415 1.391-3.811zm-47.325 14.119c-.014-.397-.253-.762-.644-.904-.752-.274-1.353-.824-1.691-1.548-.533-1.142-.281-2.508.627-3.4.266-.261.364-.647.255-1.004s-.405-.623-.771-.691c-.968-.183-1.758-.791-2.168-1.671-.7-1.498-.05-3.287 1.448-3.987 1.5-.701 3.289-.051 3.989 1.449.095.203.165.437.219.736.057.311.257.576.539.716s.616.139.896-.003c.055-.028.107-.06.098-.062.429-.2.893-.309 1.367-.344l.584 11.372c-.006-.003-.011-.006-.017-.008-.575-1.056-.917-2.197-1.011-3.397-.228-2.903-1.668-5.607-3.952-7.418l-.254-.201c-.433-.344-1.062-.271-1.404.164-.343.433-.27 1.062.164 1.404l.253.2c1.849 1.466 3.015 3.655 3.199 6.007.068.873.254 1.717.53 2.533-.309-.037-.619-.062-.931-.062-.452 0-.893.047-1.325.119zm7.325 9.881c0-.553-.448-1-1-1-1.103 0-2-.897-2-2 0-.843.542-1.598 1.347-1.878.433-.151.694-.665.653-1.122 0-.551.448-.999.977-.999h.002c.017.002.101.012.118.014.446.031.876-.237 1.026-.668.28-.806 1.035-1.347 1.877-1.347.644 0 1.233.305 1.617.836.283.392.805.524 1.24.317.432-.206.883-.188 1.261-.012-.464.14-.89.388-1.239.737-.449.448-.737 1.025-.834 1.646-.418.234-.78.543-1.084.9.018-.339.083-.676.234-.992.238-.498.027-1.096-.472-1.333s-1.095-.026-1.333.472c-.414.867-.541 1.823-.39 2.741-.638-.204-1.311-.312-2-.312-.552 0-1 .447-1 1s.448 1 1 1c1.225 0 2.375.476 3.244 1.339.082.227.178.45.301.66-.307.523-.471 1.105-.517 1.705-.311.192-.665.296-1.028.296-1.103 0-2-.897-2-2zm10.024 2.73c-.464-.265-1.053-.117-1.339.334-.353.556-1.08 1.081-2.077.899-.757-.143-1.398-.77-1.561-1.525-.188-.874.216-1.483.474-1.769.343-.381.343-.959 0-1.339-.336-.373-.521-.845-.521-1.33 0-.842.541-1.597 1.346-1.877.433-.15.708-.576.667-1.033-.016-.178 0-.517.28-.797.235-.235.511-.284.698-.284.036 0 .068.002.097.005.451.042.883-.234 1.035-.667.325-.931 1.229-1.473 2.208-1.32.314.049.623.196.895.427.248.211.423.55.491.955.213 1.258.988 2.286 2.073 2.753.734.316 1.21 1.037 1.21 1.838 0 .707-.38 1.369-.991 1.728-.955.559-1.723 1.326-2.28 2.28-.529.9-1.722 1.282-2.705.722zm22.926-4.718c-.188.958-.987 1.756-1.945 1.939-.526.101-1.051.044-1.52-.166-.928-.413-2.032-.419-3.198-.006-1.417.501-3.048.088-4.121-1.006l.205-4.002c.374-.339.766-.642 1.178-.883 1.013.721 2.216 1.112 3.451 1.112.083 0 .163-.016.245-.019 1.082.618 1.755 1.769 1.755 3.019 0 .553.447 1 1 1s1-.447 1-1c0-1.354-.508-2.627-1.374-3.612.837-.409 1.569-1.006 2.134-1.746-.307 1.098-.045 2.334.739 3.366.432.569.592 1.28.451 2.004z"/><circle cx="16" cy="51" r="1"/><circle cx="16" cy="57" r="1"/><circle cx="13" cy="54" r="1"/><path d="m35 53c-.544 0-1.079.09-1.586.261.08-.917-.092-1.853-.52-2.708-.247-.494-.846-.694-1.342-.447-.494.247-.694.848-.447 1.342.473.945.43 2.05-.113 2.955l-1.85 3.083c-.274.457-.142 1.048.299 1.345.171.114.365.17.557.17.305 0 .605-.139.801-.4l1.801-2.401c.563-.752 1.461-1.2 2.4-1.2.553 0 1-.447 1-1s-.447-1-1-1z"/><path d="m15.525 18.545 2.498.928.288 5.56c.028.552.504.968 1.05.947.552-.029.976-.499.947-1.051l-.255-4.929h23.894l-.816 15.959c-.028.551.396 1.021.948 1.05.018.001.034.001.052.001.528 0 .971-.415.998-.949l.282-5.504c.588-.615 1.299-1.076 2.079-1.323.509-.161.801-.694.664-1.21-.105-.393-.154-.718-.154-1.024 0-2.206 1.794-4 4-4 2.19 0 3.975 1.77 4 3.954-.006.05-.01.11-.01.146 0 .477.336.887.803.98.877.177 1.681.652 2.263 1.339.355.42.985.474 1.409.116.421-.356.474-.987.116-1.409-.697-.823-1.607-1.443-2.618-1.795-.333-2.995-2.881-5.331-5.963-5.331-3.309 0-6 2.691-6 6 0 .217.014.434.043.658-.17.08-.335.173-.498.267l.454-8.875c.014-.273-.085-.541-.274-.739-.189-.199-.451-.311-.725-.311h-.707l3.672-13.706c.143-.533-.174-1.082-.707-1.225l-3.863-1.035c-.255-.067-.529-.032-.759.1-.229.133-.397.352-.466.607l-4.088 15.259h-13.473c1.218-.719 2.19-1.787 2.793-3.1.779-1.7.85-3.601.199-5.354-.092-.249-.28-.451-.521-.562s-.516-.121-.765-.028l-3.75 1.393c-1.231.457-2.279 1.236-3.067 2.245-.787-1.009-1.831-1.788-3.063-2.245l-3.75-1.393c-.249-.094-.524-.082-.765.028s-.429.312-.521.562c-1.343 3.619.508 7.655 4.126 8.999zm28.306-6.545-.536 2h-2.07l.536-2zm-1.535-2 .536-2h2.07l-.536 2zm1.548-5.775 1.932.518-.338 1.257h-2.07zm-3.155 11.775h2.07l-.536 2h-2.07zm-17.428-3.775 2.719-1.01c.151.962.018 1.946-.397 2.852-.557 1.214-1.553 2.139-2.805 2.604l-.364.135 1.387-1.733c.345-.432.275-1.061-.156-1.406-.432-.345-1.061-.275-1.406.156l-2.212 2.765c.128-1.906 1.332-3.657 3.234-4.363zm-10.241-1.01 2.719 1.01c1.166.433 2.085 1.277 2.659 2.371-.11.313-.192.631-.257.952l-1.38-1.725c-.345-.433-.976-.501-1.406-.156-.431.346-.501.975-.156 1.406l1.387 1.733-.365-.135c-1.252-.465-2.248-1.39-2.805-2.604-.415-.906-.548-1.89-.396-2.852z"/><circle cx="38" cy="31" r="1"/><circle cx="24" cy="23" r="1"/><circle cx="26" cy="41" r="1"/><circle cx="33" cy="23" r="1"/><circle cx="27" cy="29" r="1"/><circle cx="31" cy="35" r="1"/><circle cx="39.17" cy="24.83" r="1"/><circle cx="35" cy="41" r="1"/><circle cx="39" cy="46" r="1"/></g></g></svg>