<svg id="Fill_Outline" enable-background="new 0 0 64 64" height="512" viewBox="0 0 64 64" width="512" xmlns="http://www.w3.org/2000/svg"><g id="Color"><g><g><path d="m36 25h25v32h-25z" fill="#d0d8da"/><path d="m54 40c-5.523 0-10-4.477-10-10v-5h-8v32h25v-17z" fill="#b8bebf"/><path d="m55 25h6v32h-6z" fill="#b8bebf"/><path d="m55 25h3v32h-3z" fill="#93999a"/><path d="m61 57h-6l3-5z" fill="#d0d8da"/><path d="m58 18h-19l-3 7h25z" fill="#e9f1f2"/><path d="m58 18-3 7h6z" fill="#d0d8da"/><path d="m58 18-3 7h3z" fill="#b8bebf"/><path d="m39 14h19v4h-19z" fill="#f9dbaf"/><path d="m45 16c-1.304 0-2.403-.837-2.816-2h-3.184v4h19v-2z" fill="#edb88e"/><path d="m36 32h19v15h-19z" fill="#f9dbaf"/><path d="m55 32h6v15h-6z" fill="#edb88e"/><path d="m55 32h3v15h-3z" fill="#da9367"/><path d="m55 40h-1c-4.838 0-8.872-3.436-9.799-8h-8.201v15h19z" fill="#edb88e"/><path d="m39 18-3 7h8l3-7z" fill="#d0d8da"/><circle cx="46.5" cy="20.5" fill="#d0d8da" r="2.5"/><circle cx="47" cy="20" fill="#f9dbaf" r="2"/><path d="m48 21c-1.105 0-2-.895-2-2 0-.293.067-.569.18-.82-.695.313-1.18 1.008-1.18 1.82 0 1.105.895 2 2 2 .811 0 1.507-.485 1.82-1.18-.251.113-.527.18-.82.18z" fill="#edb88e"/></g><g><path d="m22.885 28.886-2.838 2.819c-2.335-2.351-2.322-6.15.029-8.485l2.838-2.819c2.335 2.351 2.322 6.15-.029 8.485z" fill="#52b788"/><path d="m14.873 31.713 3.75 1.392c1.153-3.106-.43-6.56-3.536-7.713l-3.75-1.392c-1.153 3.107.43 6.56 3.536 7.713z" fill="#52b788"/><path d="m23.885 25.886-.709.705c-1.176 1.167-3.076 1.161-4.243-.015-.17-.171-.307-.36-.428-.558-.493 1.971.005 4.139 1.542 5.686l2.838-2.819c1.088-1.081 1.653-2.478 1.738-3.897-.214.317-.457.619-.738.898z" fill="#40916c"/><path d="m14.873 28.713c-1.913-.71-3.246-2.294-3.72-4.131-.767 2.944.806 6.049 3.72 7.131l3.75 1.392c.6-1.617.454-3.325-.258-4.757-1.013.628-2.287.812-3.492.365z" fill="#40916c"/><g><path d="m16.298 32.241c.101-.593.371-1.161.83-1.551.396-.336.871-.571 1.386-.652 1.518-.239 2.849.665 3.307 1.979.57-.051 1.156.133 1.593.569.436.436.62 1.023.569 1.593 1.171.408 2.017 1.51 2.017 2.821 0 .772-.3 1.468-.779 2 .61.677.929 1.622.709 2.649-.247 1.15-1.198 2.081-2.354 2.297-1.302.243-2.48-.359-3.106-1.346-.436.247-.933.4-1.47.4-1.105 0-2.07-.597-2.59-1.486-.47-.803-1.121-1.453-1.924-1.924-.889-.52-1.486-1.485-1.486-2.59 0-1.237.748-2.298 1.816-2.758.807-.346 1.335-1.136 1.482-2.001z" fill="#52b788"/><path d="m26 37c0-1.311-.846-2.413-2.017-2.822.051-.57-.133-1.156-.569-1.593-.436-.436-1.023-.62-1.593-.569-.004-.01-.01-.02-.013-.03-.588.404-.985 1.054-1.106 1.772-.101.593-.371 1.161-.83 1.551-.396.336-.871.571-1.386.652-1.506.237-2.826-.652-3.294-1.949-.121.083-.238.171-.375.23-1.069.46-1.817 1.521-1.817 2.758 0 1.105.597 2.07 1.486 2.59.803.47 1.453 1.121 1.924 1.924.52.889 1.485 1.486 2.59 1.486.537 0 1.034-.153 1.47-.4.626.987 1.804 1.589 3.106 1.346 1.156-.216 2.107-1.147 2.354-2.297.22-1.027-.099-1.972-.709-2.649.479-.532.779-1.228.779-2z" fill="#40916c"/></g><circle cx="17.5" cy="40.5" fill="#ef5350" r="3.5"/><path d="m36 32.5c0-1.381-1.119-2.5-2.5-2.5-.385 0-.746.094-1.072.25-.545-.754-1.426-1.25-2.428-1.25-1.311 0-2.414.846-2.822 2.018-.059-.005-.117-.018-.178-.018-1.105 0-2 .895-2 2 0 .061.013.119.018.178-1.172.408-2.018 1.511-2.018 2.822 0 1.657 1.343 3 3 3 0 1.657 1.343 3 3 3s3-1.343 3-3c1.657 0 3-1.343 3-3 0-.473-.117-.916-.313-1.312.778-.424 1.313-1.239 1.313-2.188z" fill="#95d5b2"/><path d="m33.761 30.026c-.04.045-.082.088-.119.135-.359.464-.862.773-1.406.993-.237.096-.458.239-.651.431-.436.436-.62 1.023-.569 1.593-1.17.409-2.016 1.511-2.016 2.822l.237 2.896c-.867-.228-1.583-.829-1.956-1.627-.318-.68-.87-1.232-1.55-1.55-.815-.381-1.423-1.119-1.639-2.011-.663.547-1.092 1.364-1.092 2.292 0 1.657 1.343 3 3 3 0 1.657 1.343 3 3 3s3-1.343 3-3c1.657 0 3-1.343 3-3 0-.473-.117-.916-.313-1.312.778-.424 1.313-1.239 1.313-2.188 0-1.291-.982-2.341-2.239-2.474z" fill="#52b788"/><path d="m40.702 32.241c-.101-.593-.371-1.161-.83-1.551-.396-.336-.871-.571-1.386-.652-1.518-.239-2.849.665-3.307 1.979-.57-.051-1.156.133-1.593.569-.436.436-.62 1.023-.569 1.593-1.171.408-2.017 1.51-2.017 2.821 0 .772.3 1.468.779 2-.61.677-.929 1.622-.709 2.649.247 1.15 1.198 2.081 2.354 2.297 1.302.243 2.48-.359 3.106-1.346.436.247.933.4 1.47.4 1.105 0 2.07-.597 2.59-1.486.47-.803 1.121-1.453 1.924-1.924.889-.52 1.486-1.485 1.486-2.59 0-1.237-.748-2.298-1.816-2.758-.807-.346-1.335-1.136-1.482-2.001z" fill="#bbefc1"/><path d="m42.469 34.391c-.338.331-.634.706-.879 1.123-.468.799-1.295 1.362-2.26 1.468-.217.024-.438-.011-.648-.069-.602-.164-1.26-.049-1.732.36-.655.566-1.556.854-2.526.673-1.156-.216-2.107-1.147-2.354-2.297-.065-.304-.07-.596-.048-.881-.622.546-1.022 1.338-1.022 2.232 0 .772.3 1.468.779 2-.61.677-.929 1.622-.709 2.649.247 1.15 1.198 2.081 2.354 2.297 1.302.243 2.48-.359 3.106-1.346.436.247.933.4 1.47.4 1.105 0 2.07-.597 2.59-1.486.47-.803 1.121-1.453 1.924-1.924.889-.52 1.486-1.485 1.486-2.59 0-1.122-.619-2.095-1.531-2.609z" fill="#95d5b2"/><ellipse cx="43" cy="39.5" fill="#ff7373" rx="2.5" ry="2" transform="matrix(.707 -.707 .707 .707 -15.336 41.975)"/><path d="m42.232 39.268c-.345-.345-.496-.817-.485-1.319-.053.047-.11.086-.161.137-.976.976-1.135 2.401-.354 3.182s2.206.623 3.182-.354c.545-.545.825-1.228.839-1.863-.967.844-2.281.957-3.021.217z" fill="#ef5350"/><path d="m20.5 41c-1.933 0-3.5-1.567-3.5-3.5 0-.156.026-.304.046-.454-1.716.225-3.046 1.677-3.046 3.454 0 1.933 1.567 3.5 3.5 3.5 1.777 0 3.229-1.33 3.454-3.046-.15.02-.298.046-.454.046z" fill="#e53935"/><path d="m13.166 36.25c-.69 1.196-2.219 1.605-3.415.915s-1.605-2.219-.915-3.415l-3.031-1.75c-1.657 2.87-.674 6.539 2.196 8.196s6.539.674 8.196-2.196z" fill="#e9f1f2"/><path d="m8.001 38.196c-1.607-.928-2.621-2.487-2.913-4.183-.399 2.397.685 4.896 2.913 6.183 2.87 1.657 6.539.674 8.196-2.196l-1.088-.628c-1.878 1.766-4.76 2.18-7.108.824z" fill="#d0d8da"/></g><path d="m35 57h-16c-8.837 0-16-7.163-16-16h48c0 8.837-7.163 16-16 16z" fill="#ade8f4"/><path d="m40 47h-16c-5.05 0-9.547-2.345-12.479-6h-8.521c0 8.837 7.163 16 16 16h16c8.269 0 15.071-6.273 15.911-14.32-2.86 2.672-6.689 4.32-10.911 4.32z" fill="#48cae4"/><g><g><path d="m34.712 51.821c-.874-.572-2.053-.321-2.706.495-.66.825-1.865.959-2.69.299-.816-.653-2.021-.639-2.748.111-.834.86-.731 2.228.182 2.959 2.588 2.07 6.363 1.651 8.433-.937.732-.913.532-2.27-.471-2.927z" fill="#edb88e"/></g><path d="m29.791 54.11c-.881-.251-1.446-1.055-1.444-1.928-.637-.113-1.308.058-1.779.545-.834.86-.731 2.228.182 2.959 2.588 2.07 6.363 1.651 8.433-.937.464-.58.55-1.339.295-1.984-1.484 1.354-3.611 1.936-5.687 1.345z" fill="#da9367"/><g><path d="m25.804 49.009c-1.04.1-1.804 1.032-1.804 2.077 0 1.057-.857 1.914-1.914 1.914-1.045 0-1.977.764-2.077 1.803-.113 1.193.822 2.197 1.991 2.197 3.314 0 6-2.686 6-6 0-1.169-1.004-2.104-2.196-1.991z" fill="#f9dbaf"/></g><path d="m27.172 49.392c-.358 1.691-1.44 3.216-3.092 4.079-.823.43-1.8.224-2.397-.432-.871.167-1.587.86-1.674 1.764-.113 1.193.822 2.197 1.991 2.197 3.314 0 6-2.686 6-6 0-.664-.33-1.244-.828-1.608z" fill="#edb88e"/><path d="m20.233 51.343c1.562 1.562 1.879 3.778.707 4.95s-3.388.855-4.95-.707c-1.066-1.066-1.418-2.489-1.504-3.641-.089-1.187.918-2.194 2.106-2.106 1.152.086 2.575.438 3.641 1.504z" fill="#da9367"/><path d="m16.99 52.586c-.752-.752-1.145-1.682-1.343-2.569-.723.33-1.224 1.079-1.161 1.928.086 1.152.438 2.575 1.504 3.641 1.562 1.562 3.778 1.879 4.95.707.663-.663.834-1.661.588-2.685-1.229.766-3.142.374-4.538-1.022z" fill="#c1815d"/></g><path d="m3 57h58v4h-58z" fill="#e9f1f2"/><path d="m8 59c-1.105 0-2-.895-2-2h-3v4h58v-2z" fill="#d0d8da"/></g></g><g id="Outline_copy"><g fill="#323232"><path d="m49.967 42c-.507 7.667-6.805 13.765-14.548 13.98.191-.189.374-.392.546-.607.527-.658.753-1.514.62-2.347s-.616-1.577-1.325-2.041c-1.275-.836-3.048-.526-4.034.707-.315.393-.891.457-1.285.143-.288-.231-.613-.405-.957-.521.005-.106.016-.208.016-.314 0-.843-.358-1.653-.982-2.22-.623-.567-1.465-.845-2.309-.766-1.519.145-2.709 1.494-2.709 3.072 0 .504-.41.914-.914.914-.039 0-.078.009-.118.01-.272-.491-.612-.958-1.029-1.374-1.042-1.042-2.52-1.663-4.273-1.794-.862-.069-1.701.251-2.313.864-.613.614-.929 1.457-.864 2.313.094 1.256.449 2.363 1.021 3.277-2.534-.803-4.847-2.27-6.664-4.295-.369-.412-1.001-.446-1.412-.076-.411.369-.445 1.001-.076 1.412 1.355 1.51 2.963 2.732 4.718 3.662h-8.076c-.552 0-1 .448-1 1s.448 1 1 1h58c.552 0 1-.448 1-1v-15.999c0-.552-.448-1-1-1s-1 .448-1 1v5h-4v-13h4v4c0 .552.448 1 1 1s1-.448 1-1v-12c0-.135-.027-.27-.081-.394l-2.919-6.811v-3.795c0-.552-.448-1-1-1h-19c-.552 0-1 .448-1 1v3.795l-2.919 6.811c-.054.124-.081.259-.081.394v4.352c-.696-.334-1.493-.444-2.268-.263-.736-.692-1.713-1.089-2.732-1.089-.552 0-1 .448-1 1s.448 1 1 1c.644 0 1.233.305 1.617.835.283.392.803.525 1.242.317.421-.201.858-.174 1.235-.005-.454.141-.872.388-1.214.731-.449.449-.737 1.025-.834 1.645-.418.234-.78.544-1.085.9.018-.339.083-.676.234-.993.238-.499.027-1.095-.472-1.333s-1.095-.027-1.333.472c-.415.869-.542 1.826-.389 2.746-.643-.205-1.318-.315-2.001-.315-.552 0-1 .448-1 1s.448 1 1 1c1.214 0 2.39.495 3.249 1.351.082.224.177.444.298.651-.181.312-.316.648-.406.998h-2.857c-.155-.257-.284-.585-.284-1 0-.552-.448-1-1-1-1.103 0-2-.897-2-2 0-.842.542-1.597 1.347-1.877.433-.151.694-.666.653-1.123 0-.551.448-.999.976-.999h.002c.015.002.095.012.11.013.546.047.99-.347 1.051-.887s-.353-1.034-.891-1.107c-.081-.012-.163-.02-.248-.02-1.288 0-2.386.818-2.81 1.961-.024-.026-.043-.056-.068-.081-.449-.449-1.025-.737-1.645-.834-.041-.073-.093-.138-.138-.208l1.251-1.243c1.327-1.317 2.061-3.073 2.067-4.942s-.716-3.63-2.034-4.957c-.39-.393-1.023-.395-1.414-.005l-2.838 2.819c-.896.89-1.51 2.008-1.818 3.212-.62-.536-1.329-.975-2.117-1.268l-3.75-1.392c-.516-.191-1.093.072-1.286.589-1.343 3.618.507 7.655 4.125 8.999l.482.179c-.155.222-.355.395-.585.494-1.103.474-1.911 1.436-2.239 2.589-.451.585-1.274.766-1.931.385-.716-.414-.962-1.333-.549-2.049.276-.479.112-1.09-.366-1.366-.481-.277-1.09-.112-1.366.366-.965 1.671-.39 3.816 1.281 4.781 1.371.792 3.06.547 4.155-.488l1.338.772c-1.542 1.741-4.151 2.222-6.243 1.014-2.388-1.378-3.208-4.443-1.83-6.83.276-.479.112-1.09-.366-1.366-.479-.277-1.089-.112-1.366.366-1.632 2.826-1.057 6.321 1.174 8.503h-3.114c-.552 0-1 .448-1 1 0 2.755.649 5.396 1.929 7.849.256.489.858.68 1.35.424.489-.256.679-.86.424-1.35-.974-1.865-1.535-3.853-1.67-5.923zm8.033-21.462 1.484 3.462h-2.967zm-1-5.538v2h-5c-.552 0-1 .448-1 1s.448 1 1 1h4.484l-2.143 5h-16.825l2.143-5h4.525c-.112.314-.184.648-.184 1 0 1.654 1.346 3 3 3s3-1.346 3-3-1.346-3-3-3h-7v-2zm-10 4c.551 0 1 .449 1 1s-.449 1-1 1-1-.449-1-1 .449-1 1-1zm-14.479 19.331c-.237-.265-.521-.71-.521-1.331 0-.842.541-1.597 1.347-1.877.433-.151.707-.577.667-1.033-.016-.177 0-.516.28-.797.28-.279.622-.292.796-.279.458.033.882-.234 1.033-.667.325-.931 1.237-1.468 2.208-1.321.314.049.624.197.895.427.248.21.422.549.491.955.213 1.258.988 2.288 2.072 2.753.514.221.889.647 1.074 1.152-.704.138-1.378.487-1.93 1.02.037-.105.067-.215.067-.333 0-.552-.448-1-1-1-.544 0-1.079.09-1.585.26.08-.917-.092-1.852-.52-2.708-.247-.494-.847-.694-1.342-.447-.494.247-.694.848-.447 1.342.473.944.43 2.049-.113 2.956l-1.559 2.597h-2.151c.068-.116.146-.228.239-.331.342-.38.342-.958-.001-1.338zm9.235 1.669c-.006-.369.149-.819.537-1.207.307-.308.696-.508 1.067-.549.168-.018.486-.018.7.196.214.213.214.53.196.7-.033.297-.172.604-.369.86zm-2.013 0h-2.743l.6-.8c.563-.751 1.461-1.2 2.4-1.2.168 0 .32-.052.459-.126-.471.652-.718 1.403-.716 2.126zm-14.639-.101c.008.034.022.067.031.101h-3.186c-.107-.95-.501-1.806-1.106-2.483.52.24 1.083.389 1.672.445.545.965 1.48 1.682 2.589 1.937zm-4.324-15.97 2.058-2.044c.536.812.822 1.765.818 2.761-.004 1.335-.529 2.589-1.476 3.53l-.277.275.546-2.153c.136-.535-.188-1.079-.724-1.215-.533-.135-1.079.188-1.215.724l-.814 3.212c-.09-.301-.199-.595-.328-.879-.211-1.574.297-3.104 1.412-4.211zm-8.759 1.391 2.718 1.009c1.357.504 2.409 1.582 2.917 2.915-.21.078-.413.174-.61.29l-1.286-1.606c-.346-.431-.976-.501-1.406-.156-.431.345-.501.975-.156 1.406l1.388 1.734-.366-.136c-2.262-.841-3.557-3.157-3.199-5.456zm2.387 10.491c.207-.28.477-.51.803-.65 1.085-.466 1.86-1.495 2.073-2.753.069-.405.243-.744.492-.955.271-.229.58-.377.894-.427.976-.148 1.882.39 2.208 1.321.151.433.58.701 1.033.667.176-.017.516-.001.797.28.076.076.116.158.156.239-.514.648-.819 1.453-.853 2.309-.932-.306-1.688-1.036-2.011-2.004l-.051-.154c-.174-.523-.738-.808-1.265-.632-.524.175-.807.741-.632 1.265l.051.153c.24.719.634 1.349 1.127 1.878-.533-.223-1.117-.348-1.73-.348-.69 0-1.361.158-1.972.458zm2.655 2.688c.08-.139.112-.294.12-.451.107-.014.209-.048.317-.048 1.207 0 2.217.86 2.449 2h-4.054c.449-.441.845-.941 1.168-1.501zm11.629 14.897c1.254 1.003 3.093.799 4.096-.456.348-.437.952-.561 1.376-.283.242.159.4.401.445.683s-.028.56-.207.783c-1.648 2.06-4.598 2.449-6.736.969.386-.533.697-1.121.922-1.752.034.022.073.032.104.056zm-3.692-2.31c0-.558.395-1.033.898-1.081.29-.032.563.062.774.254.212.193.328.456.328.741 0 2.649-2.077 4.802-4.684 4.968.264-.605.374-1.292.29-2.021 1.359-.246 2.394-1.432 2.394-2.861zm-9.233.034c.185-.184.43-.287.681-.287.023 0 .046.001.069.002 1.287.097 2.299.505 3.008 1.214.595.595.994 1.344 1.096 2.056.018.124.023.291.014.468l-1.11-1.11c-.391-.391-1.023-.391-1.414 0s-.391 1.023 0 1.414l1.11 1.11c-.178.009-.345.004-.468-.014-.712-.102-1.461-.501-2.056-1.096-.709-.709-1.117-1.721-1.214-3.008-.021-.274.083-.547.284-.749zm34.707-3.12h3.526v8h-11.017c3.297-1.762 5.939-4.582 7.491-8zm6.292 8 1.234-2.056 1.234 2.056zm3.234-8v5.39l-1.143-1.904c-.361-.603-1.354-.603-1.715 0l-1.142 1.904v-5.39zm-6-2h-2.753c.488-1.582.753-3.26.753-5 0-.552-.448-1-1-1h-4.892c.065-.21.112-.424.136-.64.1-.896-.181-1.747-.769-2.335-.151-.151-.32-.28-.502-.39-.133-1.451-1.037-2.728-2.395-3.312-.451-.194-.792-.672-.89-1.25-.147-.869-.562-1.631-1.169-2.146-.551-.468-1.2-.771-1.878-.878-.562-.089-1.117-.046-1.641.092v-3.141h17v5h-9.357c-.552 0-1 .448-1 1s.448 1 1 1h9.357zm2-15v-5h4v5z"/><path d="m61 60h-58c-.552 0-1 .448-1 1s.448 1 1 1h58c.552 0 1-.448 1-1s-.448-1-1-1z"/></g></g></svg>