<svg id="Fill_Outline" height="512" viewBox="0 0 64 64" width="512" xmlns="http://www.w3.org/2000/svg"><g id="Color"><g><g><g><path d="m14.988 23.254c-.124-1.3-1.29-2.254-2.596-2.254-1.321 0-2.392-1.071-2.392-2.393 0-1.306-.955-2.472-2.254-2.596-1.491-.141-2.746 1.027-2.746 2.489 0 4.142 3.358 7.5 7.5 7.5 1.462 0 2.63-1.254 2.488-2.746z" fill="#f9dbaf"/></g><path d="m14.5 24c-4.142 0-7.5-3.358-7.5-7.5 0-.154.021-.302.048-.447-1.163.214-2.048 1.222-2.048 2.447 0 4.142 3.358 7.5 7.5 7.5 1.225 0 2.233-.885 2.447-2.048-.145.027-.293.048-.447.048z" fill="#edb88e"/><g><path d="m32.102 5.914c-.831 1.007-.682 2.506.241 3.43.934.934.934 2.449 0 3.384-.923.923-1.073 2.423-.241 3.43.954 1.155 2.667 1.216 3.701.182 2.929-2.929 2.929-7.678 0-10.607-1.033-1.034-2.747-.974-3.701.181z" fill="#f9dbaf"/></g><path d="m34.102 15.157c-.831-1.007-.682-2.506.241-3.43.934-.934.934-2.449 0-3.384-.896-.896-1.055-2.33-.305-3.335-.716-.001-1.432.295-1.937.905-.831 1.007-.682 2.506.241 3.43.934.934.934 2.449 0 3.384-.923.923-1.073 2.423-.241 3.43.954 1.155 2.667 1.216 3.701.182.089-.089.167-.185.251-.278-.72.006-1.443-.289-1.951-.904z" fill="#edb88e"/><g><path d="m56.254 24.012c-1.3.124-2.254 1.29-2.254 2.596 0 1.321-1.071 2.392-2.393 2.392-1.306 0-2.472.955-2.596 2.254-.141 1.491 1.027 2.746 2.489 2.746 4.142 0 7.5-3.358 7.5-7.5 0-1.462-1.254-2.63-2.746-2.488z" fill="#f9dbaf"/></g><path d="m51.5 31c-.812 0-1.524-.395-1.98-.995-.277.352-.463.777-.508 1.249-.142 1.491 1.026 2.746 2.488 2.746 4.142 0 7.5-3.358 7.5-7.5 0-.391-.095-.758-.255-1.088-.847 3.214-3.765 5.588-7.245 5.588z" fill="#edb88e"/><g><path d="m24.933 41.121c.831-1.007.682-2.506-.241-3.43-.934-.934-.934-2.449 0-3.384.923-.923 1.073-2.423.241-3.43-.954-1.155-2.667-1.216-3.701-.182-2.929 2.929-2.929 7.678 0 10.607 1.034 1.035 2.747.974 3.701-.181z" fill="#f9dbaf"/></g><path d="m22.286 37.178c-.994-2.485-.558-5.183.908-7.199-.703-.055-1.424.18-1.962.718-2.929 2.929-2.929 7.678 0 10.607 1.034 1.034 2.747.973 3.701-.182.583-.706.674-1.652.364-2.474-1.219.352-2.53-.267-3.011-1.47z" fill="#edb88e"/><g><path d="m42.95 28.464c2.343 2.343 3.05 6.849.707 9.192s-6.849 1.636-9.192-.707c-3.536-3.536-2.121-10.607-2.121-10.607s7.07-1.413 10.606 2.122z" fill="#edb88e"/></g><g><path d="m59 12c0 3.314-2.686 7-6 7s-6-3.686-6-7c0-5 6-9 6-9s6 4 6 9z" fill="#edb88e"/></g><g><path d="m22.599 13.886c-2.343 2.343-6.849 3.05-9.192.707s-1.636-6.849.707-9.192c3.536-3.536 10.607-2.121 10.607-2.121s1.414 7.07-2.122 10.606z" fill="#edb88e"/></g><g fill="#da9367"><path d="m27.01 24.075c-1.562 1.562-3.778 1.879-4.95.707s-.855-3.388.707-4.95c1.066-1.066 2.489-1.418 3.641-1.504 1.187-.089 2.194.918 2.106 2.106-.086 1.152-.438 2.575-1.504 3.641z"/><path d="m45.233 18.833c1.562 1.562 1.879 3.778.707 4.95s-3.388.855-4.95-.707c-1.066-1.066-1.418-2.489-1.504-3.641-.089-1.187.918-2.194 2.106-2.106 1.152.086 2.575.438 3.641 1.504z"/><path d="m13.363 35.082c0 2.209-1.343 4-3 4s-3-1.791-3-4c0-1.507.757-2.762 1.511-3.638.777-.902 2.201-.902 2.978 0 .753.875 1.511 2.13 1.511 3.638z"/><path d="m37.464 32.95c-1.835-1.835-2.333-4.618-2.391-6.875-1.588.045-2.731.268-2.731.268s-1.414 7.071 2.121 10.607c2.343 2.343 6.849 3.05 9.192.707.793-.793 1.23-1.837 1.379-2.958-2.428.951-5.692.128-7.57-1.749z"/><path d="m56 15c-3.314 0-6-3.686-6-7 0-1.114.308-2.174.771-3.155-1.708 1.639-3.771 4.221-3.771 7.155 0 3.314 2.686 7 6 7 2.587 0 4.785-2.248 5.628-4.811-.795.505-1.684.811-2.628.811z"/><path d="m16.407 10.593c-1.525-1.525-1.752-3.964-1.083-6.129-.431.267-.843.57-1.21.937-2.343 2.343-3.05 6.849-.707 9.192s6.849 1.636 9.192-.707c.859-.859 1.422-1.928 1.788-3.052-2.46 1.534-5.994 1.745-7.98-.241z"/></g><path d="m24.06 21.782c-.62-.62-.812-1.532-.635-2.485-.229.156-.452.329-.658.535-1.562 1.562-1.879 3.778-.707 4.95s3.388.855 4.95-.707c.712-.712 1.101-1.582 1.309-2.425-1.472 1.04-3.251 1.14-4.259.132z" fill="#c1815d"/><path d="m41.99 21.075c-1.022-1.022-1.384-2.37-1.489-3.494-.642.36-1.074 1.063-1.015 1.853.086 1.152.438 2.575 1.504 3.641 1.562 1.562 3.778 1.879 4.95.707.462-.462.684-1.088.698-1.77-1.221.869-3.208.504-4.648-.937z" fill="#c1815d"/><path d="m12.363 36.082c-1.657 0-3-1.791-3-4 0-.389.052-.76.14-1.113-.233.112-.449.267-.629.476-.754.876-1.511 2.131-1.511 3.638 0 2.209 1.343 4 3 4 1.457 0 2.669-1.385 2.941-3.221-.298.131-.611.22-.941.22z" fill="#c1815d"/></g><g><path d="m47 53h-30c-7.732 0-14-6.268-14-14h58c0 7.732-6.268 14-14 14z" fill="#ade8f4"/><path d="m18 53h28v8h-28z" fill="#48cae4"/><path d="m49 49h-32c-6.341 0-12.278-4.219-14-10 0 7.732 6.268 14 14 14h30c6.292 0 11.612-4.151 13.377-9.862-2.54 3.544-6.684 5.862-11.377 5.862z" fill="#48cae4"/><path d="m28 58c-2.22 0-4.153-1.208-5.191-3h22.191c.337 0 .669-.023 1-.048v-1.952h-28v8h28v-3z" fill="#00b4d8"/></g></g></g><g id="Outline_copy"><g fill="#323232"><path d="m56.159 23.016c-1.771.169-3.159 1.747-3.159 3.591 0 .768-.625 1.393-1.393 1.393-1.845 0-3.422 1.388-3.591 3.16-.094.984.232 1.967.894 2.694.662.729 1.606 1.146 2.59 1.146 4.687 0 8.5-3.813 8.5-8.5 0-.984-.417-1.928-1.146-2.59-.728-.662-1.712-.987-2.695-.894.001 0 .001 0 0 0zm1.35 2.374c.317.288.491.682.491 1.11 0 3.584-2.916 6.5-6.5 6.5-.428 0-.822-.174-1.11-.491-.288-.316-.423-.729-.382-1.159.072-.757.775-1.35 1.6-1.35 1.87 0 3.392-1.522 3.392-3.393 0-.825.593-1.528 1.35-1.6.43-.039.842.095 1.159.383z"/><path d="m5.758 21.921c.521-.183.796-.753.613-1.274-.246-.703-.371-1.425-.371-2.147 0-.428.174-.822.491-1.11.316-.287.73-.422 1.159-.382.757.072 1.35.774 1.35 1.599 0 1.871 1.522 3.393 3.393 3.393.825 0 1.528.593 1.6 1.349.041.431-.095.843-.382 1.16-.289.317-.683.491-1.111.491-1.515 0-2.99-.534-4.155-1.503-.423-.353-1.055-.296-1.408.129-.354.424-.296 1.055.129 1.408 1.522 1.268 3.453 1.966 5.434 1.966.984 0 1.928-.417 2.59-1.146.662-.728.987-1.71.894-2.695-.169-1.771-1.747-3.159-3.591-3.159-.768 0-1.393-.625-1.393-1.393 0-1.845-1.388-3.422-3.16-3.591-.985-.092-1.966.232-2.694.894-.729.662-1.146 1.606-1.146 2.59 0 .947.163 1.892.483 2.808.183.521.754.793 1.275.613z"/><path d="m31.332 16.793c.629.763 1.554 1.227 2.537 1.274.055.002.11.004.166.004.925 0 1.82-.369 2.477-1.025 1.605-1.605 2.49-3.74 2.49-6.01s-.884-4.405-2.49-6.01c-.696-.696-1.663-1.064-2.642-1.021-.982.047-1.907.511-2.537 1.273-1.133 1.372-1 3.469.305 4.773.543.543.543 1.427 0 1.969-1.306 1.304-1.44 3.401-.306 4.773zm1.719-8.156c-.583-.583-.661-1.5-.177-2.086.276-.333.663-.529 1.09-.549.024-.002.049-.002.074-.002.4 0 .773.154 1.059.439 1.227 1.228 1.903 2.86 1.903 4.597s-.676 3.369-1.904 4.596c-.303.303-.708.464-1.133.438-.427-.02-.814-.215-1.09-.549-.484-.586-.406-1.502.177-2.085 1.324-1.324 1.324-3.477.001-4.799z"/><path d="m53 20c4.006 0 7-4.224 7-8 0-5.472-6.182-9.657-6.445-9.832-.337-.225-.776-.224-1.112.002-.059.04-1.47.994-2.955 2.546-.382.399-.368 1.032.031 1.414s1.032.368 1.414-.031c.791-.827 1.567-1.471 2.068-1.858 1.408 1.085 4.999 4.205 4.999 7.759 0 1.577-.753 3.339-1.924 4.544.397-1.589.424-3.201.424-3.544 0-.315-.029-.676-.091-1.134-.074-.548-.586-.933-1.125-.856-.547.074-.931.578-.856 1.125.049.366.072.642.072.865 0 2.523-.743 5-1.5 5s-1.5-2.477-1.5-5c0-.223.023-.499.073-.866.074-.547-.309-1.051-.856-1.125-.543-.075-1.051.309-1.125.856-.063.459-.092.82-.092 1.135 0 .342.026 1.952.421 3.541-1.169-1.205-1.921-2.966-1.921-4.541 0-.923.255-1.901.757-2.907.247-.494.046-1.095-.447-1.342-.495-.248-1.095-.046-1.342.447-.642 1.286-.968 2.565-.968 3.802 0 3.776 2.994 8 7 8z"/><path d="m17.228 17.038c.287 0 .581-.015.878-.046 1.986-.205 3.881-1.08 5.2-2.399 3.87-3.869 2.457-11.199 2.395-11.51-.079-.396-.389-.705-.784-.784-.312-.063-7.641-1.476-11.51 2.395-1.319 1.319-2.194 3.214-2.399 5.2-.224 2.171.376 4.091 1.691 5.406 1.135 1.135 2.72 1.738 4.529 1.738zm-2.407-10.93c1.72-1.72 4.484-2.106 6.624-2.106.988 0 1.844.083 2.4.154.229 1.761.569 6.501-1.954 9.023-1.117 1.117-2.9 1.831-4.583 1.853 1.408-.845 2.573-1.964 2.816-2.206.223-.223.458-.499.738-.867.334-.439.249-1.067-.19-1.401-.44-.334-1.067-.25-1.401.19-.224.295-.402.505-.56.664-1.784 1.784-4.058 3.009-4.597 2.475-.535-.536.691-2.812 2.475-4.597.158-.158.369-.336.664-.56.439-.334.525-.962.19-1.401s-.962-.525-1.401-.19c-.368.28-.644.515-.867.738-.242.242-1.363 1.402-2.207 2.808.024-1.682.738-3.462 1.853-4.577z"/><path d="m20.399 22.312c-.177 1.236.171 2.394.955 3.177.649.649 1.556 1 2.552 1 .205 0 .414-.015.625-.045 1.147-.164 2.279-.754 3.187-1.662 1.042-1.042 1.663-2.52 1.794-4.273.064-.856-.251-1.699-.864-2.313s-1.461-.93-2.313-.864c-1.753.131-3.231.752-4.273 1.794-.909.907-1.499 2.039-1.663 3.186zm1.98.283c.102-.711.501-1.461 1.096-2.056.709-.709 1.721-1.117 3.008-1.214.023-.001.046-.002.069-.002.251 0 .497.103.681.287.201.201.305.474.284.749-.097 1.288-.505 2.3-1.214 3.009-.595.595-1.344.994-2.056 1.096-.355.053-1.023.068-1.479-.389-.457-.457-.44-1.123-.389-1.48z"/><path d="m40.283 23.782c.908.908 2.04 1.498 3.187 1.662.211.03.42.045.625.045.996 0 1.903-.35 2.552-1 .783-.783 1.131-1.941.955-3.177-.164-1.148-.754-2.28-1.662-3.187-1.042-1.042-2.52-1.663-4.273-1.794-.861-.062-1.7.25-2.313.864s-.929 1.457-.864 2.313c.13 1.754.751 3.232 1.793 4.274zm.484-5.172c.185-.185.43-.287.681-.287.023 0 .046.001.069.002 1.287.097 2.299.505 3.008 1.214.595.595.994 1.344 1.096 2.056.051.356.068 1.023-.389 1.48-.457.456-1.125.44-1.479.389-.712-.102-1.461-.501-2.056-1.096-.709-.709-1.117-1.721-1.214-3.009-.021-.275.083-.547.284-.749z"/><path d="m61 38h-9c-.552 0-1 .448-1 1s.448 1 1 1h7.962c-.512 6.703-6.13 12-12.962 12h-30c-6.832 0-12.45-5.297-12.962-12h43.962c.552 0 1-.448 1-1s-.448-1-1-1h-3.317c2.43-2.888 1.535-7.681-1.026-10.243-3.87-3.87-11.199-2.457-11.51-2.395-.396.079-.705.389-.784.784-.048.24-1.149 5.925 1.187 9.931.278.476.89.638 1.368.36.477-.278.638-.89.36-1.368-1.527-2.619-1.253-6.336-1.058-7.851 1.764-.226 6.51-.562 9.023 1.952 1.119 1.119 1.833 2.907 1.852 4.593-.661-1.103-1.544-2.163-2.206-2.825-.222-.222-.497-.457-.866-.738-.441-.334-1.067-.249-1.402.189-.334.439-.25 1.067.189 1.402.296.226.507.404.665.561.609.609 1.522 1.692 2.092 2.741.485.894.632 1.604.383 1.854 0 0-.001.001-.001.001-.251.248-.962.101-1.854-.383-1.048-.569-2.131-1.482-2.741-2.092-.157-.157-.335-.369-.561-.665-.334-.438-.961-.524-1.402-.189-.439.335-.523.962-.189 1.402.281.369.516.644.738.866.63.631 1.623 1.461 2.669 2.111h-13.505c-.179-.375-.411-.721-.705-1.015-.263-.263-.408-.613-.408-.985s.145-.722.408-.985c1.305-1.305 1.438-3.401.305-4.773-.629-.763-1.554-1.227-2.537-1.274-.978-.044-1.946.326-2.642 1.021-2.134 2.134-2.938 5.155-2.237 8.01h-4.68c.473-.825.754-1.829.754-2.918 0-1.475-.606-2.958-1.753-4.29-.561-.651-1.379-1.024-2.247-1.024s-1.686.374-2.246 1.024c-1.147 1.332-1.753 2.815-1.753 4.29 0 1.089.282 2.093.754 2.918h-4.117c-.552 0-1 .448-1 1 0 8.271 6.729 15 15 15h28v6h-26v-3c0-.552-.448-1-1-1s-1 .448-1 1v4c0 .552.448 1 1 1h28c.552 0 1-.448 1-1v-7c8.271 0 15-6.729 15-15 0-.549-.448-.997-1-.997zm-39.06-6.596c.302-.303.718-.464 1.132-.438.427.02.814.215 1.09.55.484.585.406 1.501-.177 2.085-1.199 1.199-1.3 3.073-.326 4.399h-3.286c-.756-2.318-.183-4.846 1.567-6.596zm-13.577 3.678c0-1.003.427-2.007 1.269-2.985.361-.418 1.103-.417 1.462 0 .842.978 1.269 1.982 1.269 2.985 0 1.382-.672 2.608-1.574 2.918h-.854c-.901-.311-1.572-1.537-1.572-2.918z"/><path d="m6.835 43c0 .552.448 1 1 1h48.33c.552 0 1-.448 1-1s-.448-1-1-1h-48.33c-.552 0-1 .448-1 1z"/></g></g></svg>