<svg id="Capa_1" enable-background="new 0 0 510.06 510.06" height="512" viewBox="0 0 510.06 510.06" width="512" xmlns="http://www.w3.org/2000/svg"><g><g><circle cx="429.552" cy="178.133" fill="#ff8087" r="50.446"/><path d="m480 178.135c0 27.86-22.59 50.44-50.45 50.44-4.31 0-8.5-.54-12.5-1.56 21.81-5.56 37.95-25.33 37.95-48.88s-16.14-43.33-37.95-48.89c4-1.02 8.19-1.56 12.5-1.56 27.86.001 50.45 22.59 50.45 50.45z" fill="#e6646e"/><path d="m373.333 226.513c-21.038 27.415-60.316 32.584-87.73 11.547-27.415-21.038-32.584-60.316-11.547-87.73s104.706-90.431 132.121-69.393c27.415 21.037-11.806 118.162-32.844 145.576z" fill="#eef5ff"/><circle cx="329.689" cy="181.999" fill="#ffe17d" r="31.546"/><path d="m250.777 117.923c-10.511 0-20.358 2.818-28.853 7.717-11.796-16.632-31.187-27.497-53.129-27.497-26.422 0-49.152 15.749-59.358 38.363-6.068-2.063-12.566-3.199-19.332-3.199-33.161 0-60.043 26.882-60.043 60.043s26.882 60.043 60.043 60.043c22.463 0 42.032-12.344 52.329-30.61 8.061 3.575 16.975 5.577 26.361 5.577 14.85 0 28.531-4.981 39.485-13.351 10.569 11.442 25.693 18.613 42.497 18.613 31.949 0 57.849-25.9 57.849-57.849.001-31.95-25.899-57.85-57.849-57.85z" fill="#b4e6a0"/><path d="m308.63 175.775c0 31.95-25.9 57.85-57.85 57.85-4.29 0-8.48-.47-12.5-1.36 25.94-5.71 45.35-28.83 45.35-56.49 0-27.65-19.4-50.77-45.34-56.49 4.02-.89 8.2-1.36 12.49-1.36 31.95.001 57.85 25.9 57.85 57.85z" fill="#96d7a5"/><path d="m373.33 226.516c-15.05 19.62-39.46 27.85-62.18 23.22 14.28-2.89 27.61-10.76 37.18-23.22 21.04-27.42 60.26-124.54 32.85-145.58-1.08-.83-2.25-1.53-3.5-2.09 11.71-3.17 21.79-3.06 28.5 2.09 27.41 21.04-11.81 118.159-32.85 145.58z" fill="#dfe9fb"/><path d="m502.56 207.075v75.41c0 83.32-67.54 150.86-150.86 150.86h-193.34c-83.32 0-150.86-67.54-150.86-150.86v-75.41c0-8.28 6.71-15 15-15h465.06c8.29 0 15 6.72 15 15z" fill="#eef5ff"/><path d="m354.72 201.2c-8.53 11.12-23 14.98-35.53 10.55 5.58-1.96 10.66-5.51 14.53-10.55 10.6-13.82 8-33.62-5.83-44.23-2.71-2.08-5.65-3.65-8.7-4.72 9.72-3.42 20.92-2.02 29.7 4.72 13.83 10.61 16.43 30.41 5.83 44.23z" fill="#ffd164"/><path d="m502.56 207.075v75.41c0 83.32-67.54 150.86-150.86 150.86h-25c83.32 0 150.86-67.54 150.86-150.86v-75.41c0-8.28-6.71-15-15-15h25c8.29 0 15 6.72 15 15z" fill="#dfe9fb"/><path d="m502.56 207.075v42.89h-495.06v-42.89c0-8.28 6.71-15 15-15h465.06c8.29 0 15 6.72 15 15z" fill="#c4d7fb"/><path d="m502.56 207.075v42.89h-25v-42.89c0-8.28-6.71-15-15-15h25c8.29 0 15 6.72 15 15z" fill="#a9c6f9"/></g><g><path d="m487.56 184.575h-.421c.236-2.133.36-4.282.36-6.44 0-31.948-25.996-57.94-57.95-57.94-2.434 0-4.849.15-7.237.447 2.283-19.075.193-36.627-11.568-45.658-12.743-9.771-33.732-7.144-62.385 7.809-21.917 11.437-43.661 27.775-58.416 40.701-10.922-8.202-24.484-13.069-39.163-13.069-9.234 0-18.366 1.968-26.752 5.732-13.729-16.081-33.929-25.512-55.228-25.512-26.303 0-50.468 14.309-63.248 36.954-5.052-1.186-10.223-1.784-15.442-1.784-17.795 0-34.59 6.858-47.292 19.311-10.915 10.702-17.746 24.504-19.676 39.449h-.642c-12.407 0-22.5 10.093-22.5 22.5v75.42c0 87.32 71.04 158.36 158.36 158.36h125.63c4.143 0 7.5-3.358 7.5-7.5s-3.357-7.5-7.5-7.5h-125.63c-79.049.001-143.36-64.31-143.36-143.359v-25.022h480.06v25.022c0 79.049-64.311 143.36-143.36 143.36h-32.71c-4.143 0-7.5 3.358-7.5 7.5s3.357 7.5 7.5 7.5h32.71c87.32 0 158.36-71.04 158.36-158.36v-75.42c0-12.407-10.094-22.501-22.5-22.501zm-58.011-49.379c23.683 0 42.95 19.263 42.95 42.94 0 2.166-.173 4.317-.492 6.44h-67.991c4.83-11.751 11.527-29.813 15.579-48.215 3.236-.769 6.568-1.165 9.954-1.165zm-27.936-48.312c12.501 9.599 6.487 51.148-13.863 97.691h-17.467c-.244-12.321-6.041-24.197-16.01-31.85-12.753-9.797-30.076-11.01-43.943-3.815-2.472-5.458-5.663-10.52-9.467-15.058 36.875-32.193 85.898-58.353 100.75-46.968zm-86.643 76.692c9.102-6.016 21.348-5.727 30.167 1.047 6.256 4.803 9.917 12.227 10.145 19.953h-39.748c.391-2.904.595-5.843.595-8.8 0-4.17-.409-8.245-1.159-12.2zm-299.97 78.897v-35.398c0-4.135 3.364-7.5 7.5-7.5h46.54c4.142 0 7.5-3.358 7.5-7.5s-3.358-7.5-7.5-7.5h-30.731c4.221-24.732 26.022-43.76 51.801-43.76 5.768 0 11.46.939 16.92 2.792 3.656 1.243 7.658-.497 9.247-4.018 9.302-20.62 29.919-33.944 52.523-33.944 18.626 0 36.197 9.098 47.002 24.338 2.239 3.156 6.511 4.093 9.864 2.16 7.624-4.395 16.308-6.718 25.114-6.718 27.763 0 50.35 22.587 50.35 50.35 0 2.97-.259 5.913-.767 8.8h-196.322c-4.142 0-7.5 3.358-7.5 7.5s3.358 7.5 7.5 7.5h383.521c4.136 0 7.5 3.364 7.5 7.5v35.398z"/></g></g></svg>